<?xml version="1.0" encoding="utf-8"?>
<!-- Generator: Adobe Illustrator 21.0.2, SVG Export Plug-In . SVG Version: 6.00 Build 0)  -->
<svg version="1.1" id="Layer_1" xmlns="http://www.w3.org/2000/svg" xmlns:xlink="http://www.w3.org/1999/xlink" x="0px" y="0px"
	 viewBox="0 0 43 32" style="enable-background:new 0 0 43 32;" xml:space="preserve">
<style type="text/css">
	.st0{opacity:0.59;fill:#EA8F8F;enable-background:new    ;}
	.st1{fill:#8FEA75;}
	.st2{fill:#F2E9E9;}
	.st3{fill:#EA8F8F;}
</style>
<g>
	<path class="st0" d="M14.4,4.6c-0.1,0-0.1,0.1-0.2,0.4c-0.1,0.3-0.1,0.6-0.1,1.1c0,0.2,0,0.3,0.1,0.3c0,0,0.1-0.1,0.2-0.3
		c0.1-0.3,0.1-0.7,0.2-1.1l0-0.3l0,0C14.5,4.7,14.4,4.6,14.4,4.6z"/>
	<path class="st0" d="M17.5,5c0,0.2-0.1,0.5-0.1,0.8c0,0.5,0.1,0.8,0.1,0.8c0.1,0,0.1-0.1,0.1-0.3c0-0.2,0.1-0.5,0.1-0.8
		c0-0.5-0.1-0.8-0.1-0.8C17.6,4.6,17.6,4.7,17.5,5z"/>
	<path class="st0" d="M21,4.6c-0.1,0-0.1,0.1-0.2,0.4c-0.1,0.3-0.1,0.6-0.1,1.1c0,0.2,0,0.3,0.1,0.3c0,0,0.1-0.1,0.2-0.3
		c0.1-0.3,0.1-0.7,0.2-1.1l0-0.3l0,0C21.1,4.7,21.1,4.6,21,4.6z"/>
	<path class="st0" d="M22.5,5.1c-0.1,0.3-0.1,0.6-0.1,1.1c0,0.2,0,0.3,0.1,0.3c0.1,0,0.1-0.1,0.2-0.3c0.1-0.3,0.1-0.7,0.1-1.1V4.7
		c0-0.1-0.1-0.1-0.1-0.1C22.6,4.6,22.5,4.8,22.5,5.1z"/>
	<path class="st0" d="M6.4,4.6c-0.1,0-0.1,0.1-0.2,0.4C6.2,5.4,6.1,5.7,6.1,6.1c0,0.2,0,0.3,0.1,0.3c0,0,0.1-0.1,0.2-0.3
		C6.4,5.8,6.5,5.5,6.5,5l0-0.3l0,0C6.5,4.7,6.4,4.6,6.4,4.6z"/>
	<path class="st0" d="M8.7,5.6c0.1,0,0.1-0.1,0.2-0.2C8.9,5.3,8.9,5.1,8.9,5c0-0.2,0-0.3-0.1-0.3c0,0-0.1,0.1-0.1,0.3
		C8.7,5.1,8.7,5.3,8.7,5.6C8.7,5.6,8.7,5.6,8.7,5.6z"/>
	<path class="st0" d="M7.5,5.6c0.1,0,0.1-0.1,0.2-0.2C7.7,5.3,7.7,5.1,7.7,5c0-0.2,0-0.3-0.1-0.3c0,0-0.1,0.1-0.1,0.3
		C7.5,5.1,7.4,5.3,7.5,5.6C7.4,5.6,7.5,5.6,7.5,5.6z"/>
	<path class="st0" d="M28.5,5.3c0-2.6-6.4-4.7-14.2-4.7C6.4,0.6,0,2.7,0,5.3c0,2.6,6.4,4.7,14.2,4.7C22.1,10.1,28.5,8,28.5,5.3z
		 M10.1,6.1c0,0.1,0.1,0.2,0.1,0.4l-0.1,0.4c0-0.2-0.1-0.3-0.1-0.4L10.1,6.1z M5.1,5.3l0,0.3L5,5.9c0,0.2-0.1,0.4-0.1,0.6L4.8,6.8
		c0-0.3,0-0.6,0-1l0-0.2l0-0.6l0,0.2C4.7,5.6,4.6,6,4.6,6.5L4.4,6.8v0c0-0.4,0-0.8,0-1.1l0-0.5c0-0.3,0-0.5-0.1-0.5
		c0,0-0.1,0.1-0.1,0.4c0,0,0-0.1,0-0.1c0-0.1,0-0.3,0.1-0.4c0-0.1,0.1-0.2,0.1-0.2c0,0,0.1,0.1,0.1,0.4C4.5,5,4.5,5.4,4.5,6v0.2
		c0.1-0.5,0.2-1,0.2-1.5l0.1-0.3c0,0.2,0,0.4,0,0.5l0,0.4l0,0.3l0,0.6l0-0.1c0.1-0.6,0.2-1,0.2-1.2c0-0.1,0-0.2,0-0.3l0.1-0.3
		c0,0.1,0.1,0.2,0.1,0.3C5.2,4.7,5.2,5,5.1,5.3z M5.9,6.6C5.8,6.7,5.8,6.8,5.7,6.8c0,0-0.1-0.1-0.1-0.3c0-0.1,0-0.3,0-0.6l0-0.6
		c0-0.2,0-0.4,0-0.5c0-0.1,0-0.2,0-0.2c-0.1,0-0.1,0.1-0.2,0.4C5.4,5.4,5.4,5.7,5.4,6.1l0,0.6L5.3,6.8V6.8l0-0.2l0-0.2l0.1-2.2
		c0-0.5,0.1-1,0.2-1.3s0.2-0.6,0.3-0.6c0,0,0.1,0,0.1,0L5.8,2.7c0,0-0.1,0-0.1,0C5.6,2.6,5.5,3,5.5,3.8L5.4,5.4l0,0
		c0.1-0.3,0.1-0.5,0.2-0.7c0.1-0.2,0.1-0.3,0.2-0.3c0.1,0,0.1,0.1,0.1,0.3c0,0.1,0,0.2,0,0.3l0,0.9c0,0.2,0,0.3,0,0.4
		C5.8,6.5,5.8,6.5,5.9,6.6c0,0,0-0.2,0.1-0.5c0,0,0,0.1,0,0.1C5.9,6.2,5.9,6.4,5.9,6.6z M6.7,6.5C6.6,6.7,6.6,6.8,6.5,6.8
		c0,0-0.1-0.1-0.1-0.2c0-0.1,0-0.1,0-0.2l0-0.2l0-0.2l0-0.2C6.4,6.1,6.4,6.3,6.3,6.5C6.2,6.7,6.2,6.8,6.1,6.8C6.1,6.8,6,6.6,6,6.3
		c0-0.5,0.1-1,0.2-1.3c0.1-0.4,0.2-0.6,0.4-0.6c0.1,0,0.1,0,0.1,0.1c0,0,0,0.1,0,0.1l0,0.1c0,0.1,0,0.1,0,0.2L6.6,5.9l0,0.2
		c0,0.2,0,0.3,0,0.3C6.6,6.5,6.6,6.5,6.7,6.5c0,0,0-0.1,0-0.4c0,0,0,0.1,0,0.1C6.7,6.2,6.7,6.3,6.7,6.5z M7,6.5c0,0,0.1-0.1,0.1-0.3
		c0,0,0,0.1,0,0.1C7.2,6.4,7.1,6.5,7,6.5C7,6.8,7,6.8,7,6.8c-0.1,0-0.1-0.2-0.1-0.5c0-0.1,0-0.3,0-0.6l0-1.1H6.8l0.1-0.3h0.1L7,4
		l0.1-0.1l0,0.6h0.3L7.3,4.7H7l0,1.1C7,6,7,6.2,7,6.3C7,6.4,7,6.5,7,6.5z M7.7,6.3C7.7,6.7,7.6,6.8,7.5,6.8c-0.1,0-0.1-0.1-0.1-0.2
		S7.3,6.3,7.3,6.1c0-0.4,0-0.8,0.1-1.2c0.1-0.4,0.2-0.6,0.2-0.6c0.1,0,0.1,0.1,0.1,0.3c0,0.2,0,0.5-0.1,0.7C7.6,5.6,7.5,5.8,7.4,5.9
		c0,0.4,0.1,0.6,0.1,0.6c0.1,0,0.2-0.2,0.2-0.6l0,0c0,0,0,0.1,0,0.1C7.8,6.1,7.8,6.2,7.7,6.3z M8.4,5.6c0,0.1,0,0.2,0,0.2l0,0.1
		l0,0.2c0,0.1,0,0.2-0.1,0.3L8.1,6.8c0-0.5-0.1-1-0.1-1.5c0-0.4-0.1-0.7-0.1-0.7c0,0-0.1,0.1-0.1,0.4c0,0,0,0,0-0.1
		c0-0.1,0-0.3,0.1-0.4c0-0.1,0.1-0.2,0.1-0.2c0.1,0,0.2,0.6,0.2,1.9l0,0c0.1-0.7,0.2-1.1,0.2-1.4c0-0.1,0-0.2,0-0.2l0.1-0.3
		c0,0.1,0.1,0.2,0.1,0.3C8.5,4.8,8.4,5.1,8.4,5.6z M9,6.3C8.9,6.7,8.8,6.8,8.7,6.8c-0.1,0-0.1-0.1-0.1-0.2S8.5,6.3,8.5,6.1
		c0-0.4,0-0.8,0.1-1.2c0.1-0.4,0.2-0.6,0.2-0.6C9,4.3,9,4.5,9,4.7c0,0.2,0,0.5-0.1,0.7C8.8,5.6,8.8,5.8,8.7,5.9
		c0,0.4,0.1,0.6,0.1,0.6C8.9,6.5,8.9,6.3,9,6l0,0C9,6,9,6,9,6.1C9,6.1,9,6.2,9,6.3z M9.6,4.8c-0.1,0-0.1,0.1-0.2,0.4
		C9.4,5.5,9.3,5.8,9.3,6.1l0,0.6L9.2,6.8V6.7l0-0.3l0-1.2V5.1c0-0.1,0-0.2,0-0.2c0-0.1,0-0.2,0-0.2c0,0-0.1,0.1-0.1,0.4
		c0,0,0-0.1,0-0.1c0-0.1,0-0.2,0.1-0.4c0-0.2,0.1-0.3,0.1-0.3c0,0,0.1,0.1,0.1,0.3c0,0,0,0.1,0,0.2l0,0.2l0,0.4l0,0
		c0.1-0.7,0.2-1.1,0.3-1.1c0,0,0.1,0,0.1,0.1L9.6,4.8C9.6,4.8,9.6,4.8,9.6,4.8z M9.8,6.9c0-0.2-0.1-0.3-0.1-0.4l0.1-0.4
		c0,0.1,0.1,0.2,0.1,0.4L9.8,6.9z M10.6,4.2l-0.1,2.5c0,0.7-0.1,1.2-0.1,1.5c-0.1,0.4-0.2,0.6-0.4,0.6c-0.1,0-0.1,0-0.1-0.1
		c0,0,0,0,0,0l0-0.1c0-0.1,0.1-0.1,0.1-0.1c0,0,0,0,0,0c0,0,0,0,0,0l0,0c0,0,0,0,0.1,0c0.1,0,0.1-0.1,0.2-0.4c0-0.2,0.1-0.7,0.1-1.5
		l0.1-2c0,0.1-0.1,0.1-0.1,0.2c0,0.1-0.1,0.2-0.1,0.2l0-0.2C10.4,4.8,10.5,4.5,10.6,4.2L10.6,4.2z M10.7,3.6c0,0.1-0.1,0.3-0.1,0.4
		L10.7,3.6c0-0.2,0-0.3,0-0.4c0,0,0,0.1,0,0.1C10.7,3.3,10.7,3.5,10.7,3.6z M11.5,6.5c-0.1,0.2-0.1,0.4-0.2,0.4c0,0-0.1-0.1-0.1-0.2
		c0-0.1,0-0.1,0-0.2l0-0.2c0-0.1,0-0.2,0-0.2l0-0.2c-0.1,0.3-0.1,0.5-0.2,0.8c-0.1,0.2-0.1,0.3-0.2,0.3c-0.1,0-0.1-0.1-0.1-0.3
		c0-0.1,0-0.2,0-0.4l0-0.8c0,0,0-0.1,0-0.1V5c0-0.1,0-0.1,0-0.1c0-0.1,0-0.1,0-0.1c0,0-0.1,0.1-0.1,0.4c0,0,0-0.1,0-0.1
		c0-0.1,0-0.2,0.1-0.4c0-0.2,0.1-0.3,0.1-0.3c0,0,0.1,0.1,0.1,0.3c0,0,0,0.1,0,0.2L11,5l0,0.2l0,0.7c0,0.1,0,0.2,0,0.4
		c0,0.1,0,0.2,0,0.2c0.1,0,0.1-0.2,0.2-0.5c0.1-0.3,0.1-0.6,0.1-0.9l0-0.6l0.1-0.1c0,0.2,0,0.4,0,0.5l0,1.1c0,0.1,0,0.1,0,0.2l0,0.1
		c0,0.1,0,0.1,0,0.2C11.4,6.5,11.4,6.5,11.5,6.5c0,0,0-0.1,0-0.4c0,0,0,0.1,0,0.1C11.5,6.2,11.5,6.3,11.5,6.5z M11.8,5.3l0.1,0.2
		C12,5.7,12,5.9,12,6c0,0.2,0,0.4-0.1,0.6c-0.1,0.2-0.1,0.2-0.2,0.2c-0.1,0-0.1-0.1-0.2-0.1l0,0l0.1-0.3c0,0.1,0.1,0.2,0.1,0.2
		c0.1,0,0.1-0.1,0.1-0.3c0-0.1,0-0.3-0.1-0.5l0-0.2c-0.1-0.2-0.1-0.4-0.1-0.5c0-0.2,0-0.4,0.1-0.5c0.1-0.1,0.1-0.2,0.2-0.2
		c0,0,0.1,0,0.1,0.1l-0.1,0.3c0-0.1-0.1-0.1-0.1-0.1c-0.1,0-0.1,0.1-0.1,0.2C11.7,4.9,11.8,5.1,11.8,5.3z M12.6,4.7h-0.3l0,1.1
		c0,0.2,0,0.3,0,0.4c0,0.2,0,0.3,0.1,0.3c0,0,0.1-0.1,0.1-0.3c0,0,0,0.1,0,0.1c0,0.1,0,0.2-0.1,0.3s-0.1,0.2-0.1,0.2
		c-0.1,0-0.1-0.2-0.1-0.5c0-0.1,0-0.3,0-0.6l0-1.1h-0.2l0.1-0.3h0.1l0-0.5l0.1-0.1l0,0.6h0.3L12.6,4.7z M13.9,5.3l0,0.3l-0.1,0.3
		c0,0.2-0.1,0.4-0.1,0.6l-0.1,0.3c0-0.3,0-0.6,0-1l0-0.2l0-0.6l0,0.2c-0.1,0.4-0.1,0.8-0.2,1.2l-0.1,0.4v0c0-0.4,0-0.8,0-1.1l0-0.5
		c0-0.3,0-0.5-0.1-0.5c0,0-0.1,0.1-0.1,0.4c0,0,0-0.1,0-0.1c0-0.1,0-0.3,0.1-0.4c0-0.1,0.1-0.2,0.1-0.2c0,0,0.1,0.1,0.1,0.4
		c0,0.2,0.1,0.7,0.1,1.3v0.2c0.1-0.5,0.2-1,0.2-1.5l0.1-0.3c0,0.2,0,0.4,0,0.5l0,0.4l0,0.3l0,0.6l0-0.1c0.1-0.6,0.2-1,0.2-1.2
		c0-0.1,0-0.2,0-0.3l0.1-0.3C14,4.4,14,4.5,14,4.6C14,4.7,13.9,5,13.9,5.3z M14.7,6.4c-0.1,0.2-0.1,0.4-0.2,0.4c0,0-0.1-0.1-0.1-0.2
		c0-0.1,0-0.1,0-0.2l0-0.2l0-0.2l0-0.2c-0.1,0.3-0.1,0.6-0.2,0.8c-0.1,0.2-0.1,0.3-0.2,0.3C14,6.8,14,6.6,14,6.3
		c0-0.5,0.1-1,0.2-1.3c0.1-0.4,0.2-0.6,0.4-0.6c0.1,0,0.1,0,0.1,0.1c0,0,0,0.1,0,0.1l0,0.1c0,0.1,0,0.1,0,0.2l-0.1,1.1l0,0.2
		c0,0.2,0,0.3,0,0.3C14.6,6.4,14.6,6.5,14.7,6.4c0,0,0-0.1,0-0.4c0,0,0,0.1,0,0.1C14.7,6.1,14.7,6.3,14.7,6.4z M15,5.3l0.1,0.2
		c0.1,0.2,0.1,0.4,0.1,0.6c0,0.2,0,0.4-0.1,0.6C15,6.8,15,6.8,14.9,6.8c-0.1,0-0.1-0.1-0.2-0.1l0,0l0.1-0.3c0,0.1,0.1,0.2,0.1,0.2
		c0.1,0,0.1-0.1,0.1-0.3c0-0.1,0-0.3-0.1-0.5l0-0.2c-0.1-0.2-0.1-0.4-0.1-0.5c0-0.2,0-0.4,0.1-0.5C15,4.4,15,4.3,15.1,4.3
		c0,0,0.1,0,0.1,0.1l-0.1,0.3c0-0.1-0.1-0.1-0.1-0.1c-0.1,0-0.1,0.1-0.1,0.2C14.9,4.9,15,5.1,15,5.3z M16,6.6
		c-0.1,0.2-0.1,0.3-0.1,0.3c0,0-0.1-0.1-0.1-0.3c0-0.1,0-0.3,0-0.6l0-0.6c0-0.2,0-0.4,0-0.5c0-0.1,0-0.2,0-0.2
		c-0.1,0-0.1,0.1-0.2,0.4c-0.1,0.3-0.1,0.6-0.1,0.9l0,0.6l-0.1,0.2V6.8l0-0.2l0-0.2l0.1-2.2c0-0.5,0.1-1,0.2-1.3
		c0.1-0.4,0.2-0.6,0.3-0.6c0,0,0.1,0,0.1,0l-0.1,0.4c0,0-0.1,0-0.1,0c-0.2,0-0.2,0.4-0.3,1.2l-0.1,1.6l0,0c0.1-0.3,0.1-0.5,0.2-0.7
		c0.1-0.2,0.1-0.3,0.2-0.3s0.1,0.1,0.1,0.3c0,0.1,0,0.2,0,0.3l0,0.9c0,0.2,0,0.3,0,0.4C15.9,6.5,15.9,6.5,16,6.6c0,0,0-0.2,0.1-0.5
		c0,0,0,0.1,0,0.1C16,6.2,16,6.4,16,6.6z M17.2,5l-0.1,1.7c0,0.7-0.1,1.2-0.2,1.5c-0.1,0.5-0.3,0.7-0.4,0.7c0,0-0.1,0-0.1-0.1
		l0.1-0.3c0.1,0.1,0.1,0.1,0.1,0.1c0.1,0,0.2-0.1,0.2-0.3C16.9,8,17,7.6,17,7l0.1-1.2c0,0.3-0.1,0.5-0.2,0.7
		c-0.1,0.2-0.1,0.3-0.1,0.3c-0.1,0-0.1-0.2-0.1-0.5l0-0.3l0-0.7V5.1c0-0.3,0-0.4,0-0.4c0,0-0.1,0.1-0.1,0.4c0,0,0-0.1,0-0.1
		c0-0.1,0-0.2,0.1-0.4c0.1-0.1,0.1-0.2,0.1-0.2c0,0,0.1,0.1,0.1,0.1c0,0.1,0,0.3,0,0.5l0,0.9c0,0.3,0,0.5,0.1,0.5
		c0,0,0.1-0.2,0.2-0.5c0.1-0.3,0.1-0.6,0.1-0.9l0-0.5l0.1-0.2C17.2,4.5,17.2,4.7,17.2,5z M17.8,6.3c-0.1,0.4-0.2,0.6-0.3,0.6
		c-0.1,0-0.2-0.3-0.2-0.8c0-0.4,0-0.8,0.1-1.2c0.1-0.4,0.2-0.6,0.3-0.6c0.1,0,0.2,0.3,0.2,0.8C17.9,5.5,17.9,5.9,17.8,6.3z
		 M18.7,6.5c-0.1,0.2-0.1,0.4-0.2,0.4c0,0-0.1-0.1-0.1-0.2c0-0.1,0-0.1,0-0.2l0-0.2c0-0.1,0-0.2,0-0.2l0-0.2
		c-0.1,0.3-0.1,0.5-0.2,0.7c-0.1,0.2-0.1,0.3-0.2,0.3c-0.1,0-0.1-0.1-0.1-0.3c0-0.1,0-0.2,0-0.4l0-0.8c0,0,0-0.1,0-0.1V5
		c0-0.1,0-0.1,0-0.1c0-0.1,0-0.1,0-0.1c0,0-0.1,0.1-0.1,0.4c0,0,0-0.1,0-0.1c0-0.1,0-0.2,0.1-0.4c0.1-0.2,0.1-0.3,0.1-0.3
		c0,0,0.1,0.1,0.1,0.3c0,0,0,0.1,0,0.2l0,0.2l0,0.2l0,0.7c0,0.1,0,0.2,0,0.4c0,0.1,0,0.2,0,0.2c0.1,0,0.1-0.2,0.2-0.5
		c0.1-0.3,0.1-0.6,0.1-0.9l0-0.6l0.1-0.1c0,0.2,0,0.4,0,0.5l0,1.1c0,0.1,0,0.1,0,0.2l0,0.1c0,0.1,0,0.1,0,0.2
		C18.6,6.5,18.6,6.5,18.7,6.5c0,0,0-0.1,0-0.4c0,0,0,0.1,0,0.1C18.8,6.2,18.8,6.3,18.7,6.5z M19.4,4.8C19.4,4.8,19.3,4.8,19.4,4.8
		c-0.1,0-0.2,0.1-0.2,0.4c-0.1,0.3-0.1,0.6-0.1,0.9l0,0.6l-0.1,0.1V6.7l0-0.3l0-1.2V5.1c0-0.1,0-0.2,0-0.2c0-0.1,0-0.2,0-0.2
		c0,0-0.1,0.1-0.1,0.4c0,0,0-0.1,0-0.1c0-0.1,0-0.2,0.1-0.4C19,4.4,19,4.4,19,4.4c0,0,0.1,0.1,0.1,0.3c0,0,0,0.1,0,0.2l0,0.2l0,0.4
		l0,0c0.1-0.7,0.2-1.1,0.3-1.1c0,0,0.1,0,0.1,0.1L19.4,4.8z M20.5,6.6c-0.1,0.2-0.1,0.3-0.1,0.3c0,0-0.1-0.1-0.1-0.3
		c0-0.1,0-0.3,0-0.6l0-0.6c0-0.2,0-0.4,0-0.5c0-0.1,0-0.2,0-0.2c-0.1,0-0.1,0.1-0.2,0.4c-0.1,0.3-0.1,0.6-0.1,0.9l0,0.6l-0.1,0.2
		V6.8l0-0.2l0-0.2L20,4.2c0-0.5,0.1-1,0.2-1.3s0.2-0.6,0.3-0.6c0,0,0.1,0,0.1,0l-0.1,0.4c0,0-0.1,0-0.1,0c-0.2,0-0.2,0.4-0.3,1.2
		l-0.1,1.6l0,0c0.1-0.3,0.1-0.5,0.2-0.7c0.1-0.2,0.1-0.3,0.2-0.3s0.1,0.1,0.1,0.3c0,0.1,0,0.2,0,0.3l0,0.9c0,0.2,0,0.3,0,0.4
		C20.4,6.5,20.5,6.5,20.5,6.6c0,0,0-0.2,0.1-0.5c0,0,0,0.1,0,0.1C20.6,6.2,20.6,6.4,20.5,6.6z M21.3,6.4c-0.1,0.2-0.1,0.4-0.2,0.4
		c0,0-0.1-0.1-0.1-0.2c0-0.1,0-0.1,0-0.2l0-0.2l0-0.2l0-0.2C21.1,6.1,21,6.3,21,6.5c-0.1,0.2-0.1,0.3-0.2,0.3
		c-0.1,0-0.1-0.2-0.1-0.6c0-0.5,0.1-1,0.2-1.3c0.1-0.4,0.2-0.6,0.4-0.6c0.1,0,0.1,0,0.1,0.1c0,0,0,0.1,0,0.1l0,0.1
		c0,0.1,0,0.1,0,0.2l-0.1,1.1l0,0.2c0,0.2,0,0.3,0,0.3C21.2,6.4,21.2,6.5,21.3,6.4c0,0,0-0.1,0-0.4c0,0,0,0.1,0,0.1
		C21.4,6.1,21.4,6.3,21.3,6.4z M22.2,6.6c-0.1,0.2-0.1,0.3-0.1,0.3c0,0-0.1-0.1-0.1-0.3c0-0.1,0-0.3,0-0.6l0-0.6c0-0.2,0-0.4,0-0.5
		c0-0.1,0-0.2,0-0.2c-0.1,0-0.1,0.1-0.2,0.4c-0.1,0.3-0.1,0.6-0.1,0.9l0,0.6h0l-0.1,0.2V6.8l0-0.2l0-0.2l0-1.2V5.1
		c0-0.1,0-0.2,0-0.3c0-0.1,0-0.2,0-0.2c0,0-0.1,0.1-0.1,0.4c0,0,0-0.1,0-0.1c0-0.1,0-0.2,0.1-0.4s0.1-0.3,0.1-0.3
		c0,0,0.1,0.1,0.1,0.3c0,0.1,0,0.1,0,0.2l0,0.2v0.2l0,0.2c0.1-0.3,0.1-0.5,0.2-0.7c0.1-0.2,0.1-0.3,0.2-0.3s0.1,0.1,0.1,0.3
		c0,0.1,0,0.2,0,0.3l0,0.9c0,0.2,0,0.3,0,0.4C22.1,6.5,22.1,6.5,22.2,6.6c0,0,0-0.2,0.1-0.5c0,0,0,0.1,0,0.1
		C22.2,6.2,22.2,6.4,22.2,6.6z M22.9,6.5c0,0,0.1-0.2,0.1-0.5c0,0,0,0.1,0,0.1C23,6.2,23,6.3,22.9,6.5c0,0.2,0,0.3-0.1,0.3
		c0,0-0.1-0.1-0.1-0.3c0-0.1,0-0.2,0-0.4l0-0.2l0-0.2c0,0.3-0.1,0.5-0.2,0.7c-0.1,0.2-0.1,0.3-0.2,0.3c-0.1,0-0.1-0.2-0.1-0.6
		c0-0.5,0.1-0.9,0.1-1.3c0.1-0.4,0.2-0.6,0.3-0.6c0,0,0,0,0,0l0,0l0-0.2c0-0.5,0.1-1,0.2-1.3c0.1-0.4,0.2-0.5,0.3-0.5
		c0,0,0.1,0,0.1,0l-0.1,0.4c0,0-0.1,0-0.1,0c-0.1,0-0.1,0.1-0.2,0.3c0,0.2-0.1,0.5-0.1,0.9l-0.1,2.1l0,0.2c0,0.1,0,0.2,0,0.3
		C22.8,6.5,22.8,6.5,22.9,6.5z M23.3,5.3l0.1,0.2c0.1,0.2,0.1,0.4,0.1,0.6c0,0.2,0,0.4-0.1,0.6c-0.1,0.2-0.1,0.2-0.2,0.2
		c-0.1,0-0.1-0.1-0.2-0.1l0,0l0.1-0.3c0,0.1,0.1,0.2,0.1,0.2c0.1,0,0.1-0.1,0.1-0.3c0-0.1,0-0.3-0.1-0.5l0-0.2
		c-0.1-0.2-0.1-0.4-0.1-0.5c0-0.2,0-0.4,0.1-0.5c0.1-0.1,0.1-0.2,0.2-0.2c0,0,0.1,0,0.1,0.1l-0.1,0.3c0-0.1-0.1-0.1-0.1-0.1
		c-0.1,0-0.1,0.1-0.1,0.2C23.2,4.9,23.3,5.1,23.3,5.3z M23.7,6.9c0-0.2-0.1-0.3-0.1-0.4l0.1-0.4c0,0.1,0.1,0.2,0.1,0.4L23.7,6.9z
		 M23.8,4.7c0,0.2,0,0.3,0,0.4l0,0.5l0,0l-0.1,0.2l0-0.4c0-0.4,0-0.7,0-1c0-0.4,0-0.8,0-1l0.1-0.2c0,0.1,0,0.3,0,0.4
		C23.8,3.9,23.8,4.3,23.8,4.7z M24.1,6.9c0-0.2-0.1-0.3-0.1-0.4l0.1-0.4c0,0.1,0.1,0.2,0.1,0.4L24.1,6.9z M24.2,4.7
		c0,0.2,0,0.3,0,0.4l0,0.5l0,0l-0.1,0.2l0-0.4c0-0.4,0-0.7,0-1c0-0.4,0-0.8,0-1l0.1-0.2c0,0.1,0,0.3,0,0.4
		C24.2,3.9,24.2,4.3,24.2,4.7z"/>
	<path class="st1" d="M40.2,19c-0.4-0.6-0.8-1.2-1.2-1.7c-0.3-2.6-1.8-4.8-3.9-5.6c1.5-0.6,2.5-1.8,2.5-3.2c0-2-1.9-3.6-4.3-3.6
		c-2.4,0-4.3,1.6-4.3,3.6c0,0.3,0.1,0.6,0.1,0.8c0.3,0.1,0.6,0.4,0.6,0.7c0,0.1,0,0.2-0.1,0.3c0.4,0.6,1.1,1.1,1.9,1.4
		c-2,0.8-3.5,2.8-3.8,5.3c-0.4,0.7-0.8,1.5-1.3,2.4c-1.1,2.3-1.6,4.3-1.1,4.4c0.4,0.1,1.6-1.4,2.6-3.5c0.4,1.5,1.3,2.8,2.4,3.6
		c-0.2,0.8-0.4,2.1-0.4,3.5c0,2.5,0.4,4.5,0.9,4.5c0.5,0,0.9-2,0.9-4.5c0-1.1-0.1-2.1-0.2-2.8c0.6,0.2,1.2,0.4,1.8,0.4
		c0.6,0,1.1-0.1,1.7-0.3c-0.1,0.8-0.2,1.7-0.2,2.8c0,2.5,0.4,4.5,0.9,4.5c0.5,0,0.9-2,0.9-4.5c0-1.4-0.1-2.6-0.3-3.4
		c1.3-0.9,2.2-2.3,2.7-4.1c1.4,2,2.8,3.5,3.2,3.3C42.5,23.2,41.6,21.3,40.2,19z M34.8,8c0.3-0.5,0.7-0.9,0.9-0.9
		c0.2,0.1,0.1,0.5-0.2,1.1c-0.3,0.5-0.7,0.9-0.9,0.9C34.4,9,34.5,8.5,34.8,8z M31,7.2C31.2,7.1,31.6,7.5,32,8c0.4,0.5,0.5,1,0.3,1.1
		s-0.6-0.3-0.9-0.9C31,7.7,30.8,7.2,31,7.2z"/>
	<path class="st2" d="M32.3,9.1C32.4,9,32.3,8.6,32,8c-0.4-0.5-0.8-0.9-0.9-0.9c-0.2,0.1,0,0.5,0.3,1.1C31.7,8.8,32.1,9.2,32.3,9.1z
		"/>
	<path class="st2" d="M35.4,8.2c0.3-0.5,0.4-1,0.2-1.1C35.5,7,35.1,7.4,34.8,8s-0.4,1-0.2,1.1C34.7,9.1,35.1,8.7,35.4,8.2z"/>
	<path d="M5.1,4.6c0,0.1,0,0.2,0,0.3c0,0.2-0.1,0.6-0.2,1.2l0,0.1l0-0.6l0-0.3l0-0.4c0-0.1,0-0.3,0-0.5L4.7,4.6
		c0,0.4-0.1,0.9-0.2,1.5V6c0-0.6,0-1-0.1-1.3c0-0.2-0.1-0.4-0.1-0.4c0,0-0.1,0.1-0.1,0.2c0,0.1-0.1,0.3-0.1,0.4c0,0.1,0,0.1,0,0.1
		c0-0.3,0-0.4,0.1-0.4c0,0,0.1,0.2,0.1,0.5l0,0.5c0,0.4,0,0.7,0,1.1v0l0.1-0.4c0-0.4,0.1-0.8,0.2-1.2l0-0.2l0,0.6l0,0.2
		c0,0.3,0,0.7,0,1l0.1-0.3C4.9,6.3,5,6.1,5,5.9l0.1-0.3l0-0.3c0-0.3,0.1-0.6,0.1-0.7c0-0.1,0-0.2-0.1-0.3L5.1,4.6z"/>
	<path d="M5.8,6.5c0,0,0,0,0-0.1c0-0.1,0-0.3,0-0.4l0-0.9c0-0.1,0-0.2,0-0.3c0-0.2,0-0.3-0.1-0.3c-0.1,0-0.1,0.1-0.2,0.3
		C5.5,4.8,5.5,5.1,5.4,5.4l0,0l0.1-1.6c0-0.8,0.1-1.2,0.3-1.2c0,0,0,0,0.1,0l0.1-0.4c0,0-0.1,0-0.1,0c-0.1,0-0.2,0.2-0.3,0.6
		S5.4,3.7,5.4,4.2L5.3,6.4l0,0.2l0,0.2v0.1l0.1-0.2l0-0.6c0-0.3,0.1-0.7,0.1-0.9c0.1-0.3,0.1-0.4,0.2-0.4c0,0,0,0.1,0,0.2
		c0,0.1,0,0.3,0,0.5l0,0.6c0,0.2,0,0.4,0,0.6c0,0.2,0,0.3,0.1,0.3C5.8,6.8,5.8,6.7,5.8,6.5c0.1-0.1,0.1-0.3,0.1-0.4c0,0,0-0.1,0-0.1
		C5.9,6.4,5.8,6.5,5.8,6.5z"/>
	<path d="M6.6,6.5c0,0,0,0,0-0.1c0-0.1,0-0.2,0-0.3l0-0.2l0.1-1.1c0,0,0-0.1,0-0.2l0-0.1c0,0,0,0,0-0.1c0,0-0.1-0.1-0.1-0.1
		c-0.1,0-0.2,0.2-0.4,0.6C6.1,5.3,6,5.8,6,6.3c0,0.4,0,0.6,0.1,0.6c0.1,0,0.1-0.1,0.2-0.3c0.1-0.2,0.1-0.5,0.2-0.8l0,0.2l0,0.2
		l0,0.2c0,0.1,0,0.2,0,0.2c0,0.2,0,0.2,0.1,0.2C6.6,6.8,6.6,6.7,6.6,6.5c0.1-0.2,0.1-0.3,0.1-0.4c0,0,0-0.1,0-0.1
		C6.7,6.3,6.6,6.5,6.6,6.5z M6.5,5c0,0.4-0.1,0.8-0.2,1.1C6.3,6.3,6.2,6.5,6.2,6.5c0,0-0.1-0.1-0.1-0.3c0-0.4,0-0.8,0.1-1.1
		c0-0.3,0.1-0.4,0.2-0.4c0.1,0,0.1,0,0.1,0.1l0,0L6.5,5z"/>
	<path d="M7,4.7h0.3l0.1-0.3H7.1l0-0.6L7,4l0,0.5H6.9L6.8,4.7L7,4.7L6.9,5.8c0,0.3,0,0.4,0,0.6c0,0.3,0,0.5,0.1,0.5
		c0,0,0.1-0.1,0.1-0.2s0.1-0.2,0.1-0.3c0,0,0-0.1,0-0.1C7.1,6.4,7.1,6.5,7,6.5C7,6.5,7,6.4,7,6.3C7,6.2,7,6,7,5.8L7,4.7z"/>
	<path d="M7.8,6c0,0.4-0.1,0.5-0.2,0.6c-0.1,0-0.1-0.2-0.1-0.6c0.1-0.1,0.2-0.3,0.3-0.5c0.1-0.2,0.1-0.5,0.1-0.7
		c0-0.2,0-0.3-0.1-0.3c-0.1,0-0.2,0.2-0.2,0.6C7.4,5.3,7.3,5.7,7.3,6.1c0,0.2,0,0.4,0.1,0.5s0.1,0.2,0.1,0.2c0.1,0,0.2-0.2,0.2-0.5
		c0-0.1,0.1-0.2,0.1-0.3C7.8,6,7.8,6,7.8,6L7.8,6z M7.5,4.9c0-0.2,0.1-0.3,0.1-0.3c0.1,0,0.1,0.1,0.1,0.3c0,0.2,0,0.3-0.1,0.4
		C7.6,5.5,7.5,5.6,7.5,5.6c0,0,0,0,0,0C7.4,5.3,7.5,5.1,7.5,4.9z"/>
	<path d="M8.4,4.7c0,0.1,0,0.1,0,0.2c0,0.3-0.1,0.7-0.2,1.4l0,0C8.1,5,8.1,4.3,7.9,4.3c0,0-0.1,0.1-0.1,0.2c0,0.1-0.1,0.3-0.1,0.4
		c0,0,0,0.1,0,0.1c0-0.3,0-0.4,0.1-0.4c0,0,0.1,0.2,0.1,0.7c0,0.4,0.1,0.9,0.1,1.5l0.1-0.3c0-0.1,0-0.2,0.1-0.3l0-0.2l0-0.1
		c0,0,0-0.1,0-0.2c0.1-0.5,0.1-0.8,0.1-1c0-0.1,0-0.2-0.1-0.3L8.4,4.7z"/>
	<path d="M9,6C8.9,6.3,8.9,6.5,8.8,6.5c-0.1,0-0.1-0.2-0.1-0.6c0.1-0.1,0.2-0.3,0.3-0.5C9,5.2,9,4.9,9,4.7c0-0.2,0-0.3-0.1-0.3
		c-0.1,0-0.2,0.2-0.2,0.6C8.6,5.3,8.5,5.7,8.5,6.1c0,0.2,0,0.4,0.1,0.5s0.1,0.2,0.1,0.2c0.1,0,0.2-0.2,0.2-0.5C9,6.2,9,6.1,9,6.1
		C9,6,9,6,9,6L9,6z M8.7,4.9c0-0.2,0.1-0.3,0.1-0.3c0.1,0,0.1,0.1,0.1,0.3c0,0.2,0,0.3-0.1,0.4C8.8,5.5,8.8,5.6,8.7,5.6c0,0,0,0,0,0
		C8.7,5.3,8.7,5.1,8.7,4.9z"/>
	<path d="M9.7,4.3c-0.1,0-0.2,0.4-0.3,1.1l0,0l0-0.4l0-0.2c0-0.1,0-0.1,0-0.2c0-0.2,0-0.3-0.1-0.3c0,0-0.1,0.1-0.1,0.3
		c0,0.2-0.1,0.3-0.1,0.4c0,0,0,0.1,0,0.1c0-0.3,0.1-0.4,0.1-0.4c0,0,0,0.1,0,0.2c0,0.1,0,0.1,0,0.2v0.1l0,1.2l0,0.3v0.1l0.1-0.1
		l0-0.6c0-0.3,0-0.6,0.1-0.9c0.1-0.3,0.1-0.4,0.2-0.4c0,0,0,0,0.1,0L9.7,4.3C9.7,4.4,9.7,4.3,9.7,4.3z"/>
	<path d="M9.7,6.5c0,0.1,0.1,0.2,0.1,0.4l0.1-0.4c0-0.2,0-0.3-0.1-0.4L9.7,6.5z"/>
	<path d="M10.2,6.5c0-0.2,0-0.3-0.1-0.4L10,6.5c0,0.1,0.1,0.2,0.1,0.4L10.2,6.5z"/>
	<path d="M10.6,3.5l0,0.5C10.6,3.9,10.6,3.8,10.6,3.5c0.1-0.1,0.1-0.2,0.1-0.3c0,0,0-0.1,0-0.1C10.7,3.3,10.6,3.4,10.6,3.5z"/>
	<path d="M10.3,5.1c0-0.1,0.1-0.1,0.1-0.2c0-0.1,0.1-0.1,0.1-0.2l-0.1,2c0,0.8,0,1.3-0.1,1.5c0,0.2-0.1,0.4-0.2,0.4c0,0,0,0-0.1,0
		l0,0c0,0,0,0,0,0c0,0,0,0,0,0c0,0-0.1,0-0.1,0.1l0,0.1c0,0,0,0,0,0c0,0,0.1,0.1,0.1,0.1c0.1,0,0.2-0.2,0.4-0.6
		c0.1-0.3,0.1-0.8,0.1-1.5l0.1-2.5v0c-0.1,0.3-0.2,0.6-0.3,0.7L10.3,5.1z"/>
	<path d="M11.4,6.5c0,0,0,0,0-0.1c0,0,0-0.1,0-0.2l0-0.1c0,0,0-0.1,0-0.2l0-1.1c0-0.2,0-0.3,0-0.5l-0.1,0.1l0,0.6
		c0,0.3-0.1,0.6-0.1,0.9c-0.1,0.3-0.1,0.5-0.2,0.5c0,0,0-0.1,0-0.2c0-0.1,0-0.3,0-0.4l0-0.7L11,5l0-0.2c0-0.1,0-0.1,0-0.2
		c0-0.2,0-0.3-0.1-0.3c0,0-0.1,0.1-0.1,0.3c0,0.2-0.1,0.3-0.1,0.4c0,0,0,0.1,0,0.1c0-0.3,0.1-0.4,0.1-0.4c0,0,0,0.1,0,0.1
		c0,0,0,0.1,0,0.1v0.2c0,0.1,0,0.1,0,0.1l0,0.8c0,0.2,0,0.3,0,0.4c0,0.2,0,0.3,0.1,0.3c0,0,0.1-0.1,0.2-0.3c0.1-0.2,0.1-0.5,0.2-0.8
		l0,0.2c0,0,0,0.1,0,0.2l0,0.2c0,0.1,0,0.2,0,0.2c0,0.2,0,0.2,0.1,0.2C11.4,6.8,11.4,6.7,11.4,6.5c0.1-0.2,0.1-0.3,0.1-0.4
		c0,0,0-0.1,0-0.1C11.5,6.3,11.4,6.5,11.4,6.5z"/>
	<path d="M11.9,4.7L12,4.4c-0.1-0.1-0.1-0.1-0.1-0.1c-0.1,0-0.1,0.1-0.2,0.2c-0.1,0.1-0.1,0.3-0.1,0.5c0,0.1,0,0.3,0.1,0.5l0,0.2
		c0.1,0.2,0.1,0.4,0.1,0.5c0,0.2,0,0.3-0.1,0.3c-0.1,0-0.1-0.1-0.1-0.2l-0.1,0.3l0,0c0.1,0.1,0.1,0.1,0.2,0.1c0.1,0,0.1-0.1,0.2-0.2
		C12,6.4,12,6.2,12,6c0-0.2,0-0.3-0.1-0.6l-0.1-0.2c-0.1-0.2-0.1-0.4-0.1-0.5c0-0.2,0-0.2,0.1-0.2C11.9,4.6,11.9,4.6,11.9,4.7z"/>
	<path d="M12.4,3.8L12.3,4l0,0.5h-0.1l-0.1,0.3h0.2l0,1.1c0,0.3,0,0.4,0,0.6c0,0.3,0,0.5,0.1,0.5c0,0,0.1-0.1,0.1-0.2
		s0.1-0.2,0.1-0.3c0,0,0-0.1,0-0.1c-0.1,0.2-0.1,0.3-0.1,0.3c0,0-0.1-0.1-0.1-0.3c0-0.1,0-0.2,0-0.4l0-1.1h0.3l0.1-0.3h-0.3
		L12.4,3.8z"/>
	<path d="M13.8,4.6c0,0.1,0,0.2,0,0.3c0,0.2-0.1,0.6-0.2,1.2l0,0.1l0-0.6l0-0.3l0-0.4c0-0.1,0-0.3,0-0.5l-0.1,0.3
		c0,0.4-0.1,0.9-0.2,1.5V6c0-0.6,0-1-0.1-1.3c0-0.2-0.1-0.4-0.1-0.4c0,0-0.1,0.1-0.1,0.2C13,4.7,13,4.8,13,5c0,0.1,0,0.1,0,0.1
		c0-0.3,0-0.4,0.1-0.4c0,0,0.1,0.2,0.1,0.5l0,0.5c0,0.4,0,0.7,0,1.1v0l0.1-0.4c0-0.4,0.1-0.8,0.2-1.2l0-0.2l0,0.6l0,0.2
		c0,0.3,0,0.7,0,1l0.1-0.3c0-0.2,0-0.4,0.1-0.6l0.1-0.3l0-0.3C13.9,5,14,4.7,14,4.6c0-0.1,0-0.2-0.1-0.3L13.8,4.6z"/>
	<path d="M14.6,6.5c0,0,0,0,0-0.1c0-0.1,0-0.2,0-0.3l0-0.2l0.1-1.1c0,0,0-0.1,0-0.2l0-0.1c0,0,0,0,0-0.1c0,0-0.1-0.1-0.1-0.1
		c-0.1,0-0.2,0.2-0.4,0.6C14.1,5.3,14,5.8,14,6.3c0,0.4,0,0.6,0.1,0.6c0.1,0,0.1-0.1,0.2-0.3c0.1-0.2,0.1-0.5,0.2-0.8l0,0.2l0,0.2
		l0,0.2c0,0.1,0,0.2,0,0.2c0,0.2,0,0.2,0.1,0.2C14.6,6.8,14.6,6.7,14.6,6.5c0.1-0.2,0.1-0.3,0.1-0.4c0,0,0-0.1,0-0.1
		C14.7,6.3,14.6,6.5,14.6,6.5z M14.5,5c0,0.4-0.1,0.8-0.2,1.1c-0.1,0.2-0.1,0.3-0.2,0.3c0,0-0.1-0.1-0.1-0.3c0-0.4,0-0.8,0.1-1.1
		c0-0.3,0.1-0.4,0.2-0.4c0.1,0,0.1,0,0.1,0.1l0,0L14.5,5z"/>
	<path d="M15.1,4.7l0.1-0.3c-0.1-0.1-0.1-0.1-0.1-0.1c-0.1,0-0.1,0.1-0.2,0.2c-0.1,0.1-0.1,0.3-0.1,0.5c0,0.1,0,0.3,0.1,0.5l0,0.2
		c0.1,0.2,0.1,0.4,0.1,0.5c0,0.2,0,0.3-0.1,0.3c-0.1,0-0.1-0.1-0.1-0.2l-0.1,0.3l0,0c0,0.1,0.1,0.1,0.2,0.1c0.1,0,0.1-0.1,0.2-0.2
		c0.1-0.2,0.1-0.4,0.1-0.6c0-0.2,0-0.3-0.1-0.6L15,5.3c-0.1-0.2-0.1-0.4-0.1-0.5c0-0.2,0-0.2,0.1-0.2C15.1,4.6,15.1,4.6,15.1,4.7z"
		/>
	<path d="M15.9,6.5c0,0,0,0,0-0.1c0-0.1,0-0.3,0-0.4l0-0.9c0-0.1,0-0.2,0-0.3c0-0.2,0-0.3-0.1-0.3s-0.1,0.1-0.2,0.3
		c-0.1,0.2-0.1,0.4-0.2,0.7l0,0l0.1-1.6c0-0.8,0.1-1.2,0.3-1.2c0,0,0,0,0.1,0L16,2.3c0,0-0.1,0-0.1,0c-0.1,0-0.2,0.2-0.3,0.6
		c-0.1,0.4-0.2,0.8-0.2,1.3l-0.1,2.2l0,0.2l0,0.2v0.1l0.1-0.2l0-0.6c0-0.3,0.1-0.7,0.1-0.9c0.1-0.3,0.1-0.4,0.2-0.4c0,0,0,0.1,0,0.2
		c0,0.1,0,0.3,0,0.5l0,0.6c0,0.2,0,0.4,0,0.6c0,0.2,0,0.3,0.1,0.3C15.9,6.8,15.9,6.7,15.9,6.5C16,6.4,16,6.2,16,6.1c0,0,0-0.1,0-0.1
		C16,6.4,15.9,6.5,15.9,6.5z"/>
	<path d="M17.1,5c0,0.3,0,0.6-0.1,0.9c-0.1,0.3-0.1,0.5-0.2,0.5c0,0-0.1-0.2-0.1-0.5l0-0.9c0-0.3,0-0.4,0-0.5c0-0.1,0-0.1-0.1-0.1
		c0,0-0.1,0.1-0.1,0.2c-0.1,0.1-0.1,0.3-0.1,0.4c0,0,0,0.1,0,0.1c0-0.2,0.1-0.4,0.1-0.4c0,0,0,0.1,0,0.4v0.2l0,0.7l0,0.3
		c0,0.3,0,0.5,0.1,0.5c0,0,0.1-0.1,0.1-0.3C17,6.3,17,6.1,17.1,5.8L17,7c0,0.6-0.1,1-0.1,1.2c-0.1,0.2-0.1,0.3-0.2,0.3
		c-0.1,0-0.1,0-0.1-0.1l-0.1,0.3c0,0.1,0.1,0.1,0.1,0.1c0.2,0,0.3-0.2,0.4-0.7c0.1-0.3,0.1-0.8,0.2-1.5L17.2,5c0-0.3,0-0.5,0.1-0.7
		l-0.1,0.2L17.1,5z"/>
	<path d="M17.5,4.9c-0.1,0.4-0.1,0.8-0.1,1.2c0,0.5,0.1,0.8,0.2,0.8c0.1,0,0.2-0.2,0.3-0.6c0.1-0.4,0.1-0.8,0.1-1.2
		c0-0.5-0.1-0.8-0.2-0.8C17.6,4.3,17.6,4.5,17.5,4.9z M17.7,6.2c0,0.2-0.1,0.3-0.1,0.3c-0.1,0-0.1-0.3-0.1-0.8c0-0.3,0-0.6,0.1-0.8
		c0-0.2,0.1-0.3,0.1-0.3c0.1,0,0.1,0.3,0.1,0.8C17.8,5.7,17.8,6,17.7,6.2z"/>
	<path d="M18.6,6.5c0,0,0,0,0-0.1c0,0,0-0.1,0-0.2l0-0.1c0,0,0-0.1,0-0.2l0-1.1c0-0.2,0-0.3,0-0.5l-0.1,0.1l0,0.6
		c0,0.3-0.1,0.6-0.1,0.9c-0.1,0.3-0.1,0.5-0.2,0.5c0,0,0-0.1,0-0.2c0-0.1,0-0.3,0-0.4l0-0.7l0-0.2l0-0.2c0-0.1,0-0.1,0-0.2
		c0-0.2,0-0.3-0.1-0.3c0,0-0.1,0.1-0.1,0.3C18,4.8,18,4.9,18,5c0,0,0,0.1,0,0.1c0-0.3,0.1-0.4,0.1-0.4c0,0,0,0.1,0,0.1
		c0,0,0,0.1,0,0.1v0.2c0,0.1,0,0.1,0,0.1l0,0.8c0,0.2,0,0.3,0,0.4c0,0.2,0,0.3,0.1,0.3c0,0,0.1-0.1,0.2-0.3c0.1-0.2,0.1-0.5,0.2-0.7
		l0,0.2c0,0,0,0.1,0,0.2l0,0.2c0,0.1,0,0.2,0,0.2c0,0.2,0,0.2,0.1,0.2C18.6,6.8,18.7,6.7,18.6,6.5c0.1-0.2,0.1-0.3,0.1-0.4
		c0,0,0-0.1,0-0.1C18.7,6.3,18.7,6.5,18.6,6.5z"/>
	<path d="M19.1,5.4L19.1,5.4l0-0.4l0-0.2c0-0.1,0-0.1,0-0.2c0-0.2,0-0.3-0.1-0.3c0,0-0.1,0.1-0.1,0.3c-0.1,0.2-0.1,0.3-0.1,0.4
		c0,0,0,0.1,0,0.1c0-0.3,0.1-0.4,0.1-0.4c0,0,0,0.1,0,0.2c0,0.1,0,0.1,0,0.2v0.1l0,1.2l0,0.3v0.1L19,6.7l0-0.6c0-0.3,0-0.6,0.1-0.9
		c0.1-0.3,0.1-0.4,0.2-0.4c0,0,0,0,0.1,0l0.1-0.4c0,0-0.1-0.1-0.1-0.1C19.3,4.3,19.2,4.7,19.1,5.4z"/>
	<path d="M20.5,6.5c0,0,0,0,0-0.1c0-0.1,0-0.3,0-0.4l0-0.9c0-0.1,0-0.2,0-0.3c0-0.2,0-0.3-0.1-0.3s-0.1,0.1-0.2,0.3
		c-0.1,0.2-0.1,0.4-0.2,0.7l0,0l0.1-1.6c0-0.8,0.1-1.2,0.3-1.2c0,0,0.1,0,0.1,0l0.1-0.4c0,0-0.1,0-0.1,0c-0.1,0-0.2,0.2-0.3,0.6
		S20,3.7,20,4.2l-0.1,2.2l0,0.2l0,0.2v0.1L20,6.7l0-0.6c0-0.3,0.1-0.7,0.1-0.9c0.1-0.3,0.1-0.4,0.2-0.4c0,0,0,0.1,0,0.2
		c0,0.1,0,0.3,0,0.5l0,0.6c0,0.2,0,0.4,0,0.6c0,0.2,0,0.3,0.1,0.3C20.4,6.8,20.5,6.7,20.5,6.5c0.1-0.1,0.1-0.3,0.1-0.4
		c0,0,0-0.1,0-0.1C20.5,6.4,20.5,6.5,20.5,6.5z"/>
	<path d="M21.2,6.5c0,0,0,0,0-0.1c0-0.1,0-0.2,0-0.3l0-0.2l0.1-1.1c0,0,0-0.1,0-0.2l0-0.1c0,0,0,0,0-0.1c0,0-0.1-0.1-0.1-0.1
		c-0.1,0-0.2,0.2-0.4,0.6c-0.1,0.4-0.2,0.8-0.2,1.3c0,0.4,0,0.6,0.1,0.6c0.1,0,0.1-0.1,0.2-0.3c0.1-0.2,0.1-0.5,0.2-0.8l0,0.2l0,0.2
		l0,0.2c0,0.1,0,0.2,0,0.2c0,0.2,0,0.2,0.1,0.2C21.2,6.8,21.3,6.7,21.2,6.5c0.1-0.2,0.1-0.3,0.1-0.4c0,0,0-0.1,0-0.1
		C21.3,6.3,21.3,6.5,21.2,6.5z M21.2,5c0,0.4-0.1,0.8-0.2,1.1c-0.1,0.2-0.1,0.3-0.2,0.3c0,0-0.1-0.1-0.1-0.3c0-0.4,0-0.8,0.1-1.1
		c0-0.3,0.1-0.4,0.2-0.4c0.1,0,0.1,0,0.1,0.1l0,0L21.2,5z"/>
	<path d="M22.1,6.5c0,0,0,0,0-0.1c0-0.1,0-0.3,0-0.4l0-0.9c0-0.1,0-0.2,0-0.3c0-0.2,0-0.3-0.1-0.3s-0.1,0.1-0.2,0.3
		c-0.1,0.2-0.1,0.4-0.2,0.7l0-0.2V5l0-0.2c0-0.1,0-0.1,0-0.2c0-0.2,0-0.3-0.1-0.3c0,0-0.1,0.1-0.1,0.3S21.4,4.9,21.4,5
		c0,0,0,0.1,0,0.1c0-0.3,0.1-0.4,0.1-0.4c0,0,0,0.1,0,0.2c0,0.1,0,0.2,0,0.3v0.1l0,1.2l0,0.2l0,0.2v0.1l0.1-0.2h0l0-0.6
		c0-0.3,0.1-0.7,0.1-0.9c0.1-0.3,0.1-0.4,0.2-0.4c0,0,0,0.1,0,0.2c0,0.1,0,0.3,0,0.5L22,6c0,0.2,0,0.4,0,0.6c0,0.2,0,0.3,0.1,0.3
		C22.1,6.8,22.1,6.7,22.1,6.5c0.1-0.1,0.1-0.3,0.1-0.4c0,0,0-0.1,0-0.1C22.2,6.4,22.1,6.5,22.1,6.5z"/>
	<path d="M22.9,5.9l0.1-2.1c0-0.4,0-0.7,0.1-0.9c0-0.2,0.1-0.3,0.2-0.3c0,0,0.1,0,0.1,0l0.1-0.4c0,0,0,0-0.1,0
		c-0.1,0-0.2,0.2-0.3,0.5c-0.1,0.4-0.1,0.8-0.2,1.3l0,0.2l0,0c0,0,0,0,0,0c-0.1,0-0.2,0.2-0.3,0.6c-0.1,0.4-0.1,0.8-0.1,1.3
		c0,0.4,0,0.6,0.1,0.6c0,0,0.1-0.1,0.2-0.3c0.1-0.2,0.1-0.5,0.2-0.7l0,0.2l0,0.2c0,0.2,0,0.3,0,0.4c0,0.2,0,0.3,0.1,0.3
		c0.1,0,0.1-0.1,0.2-0.4C23,6.3,23,6.2,23,6.1c0,0,0-0.1,0-0.1c0,0.3-0.1,0.5-0.1,0.5c0,0,0,0,0-0.1c0-0.1,0-0.2,0-0.3L22.9,5.9z
		 M22.8,5c0,0.4-0.1,0.8-0.1,1.1c-0.1,0.2-0.1,0.3-0.2,0.3c0,0-0.1-0.1-0.1-0.3c0-0.4,0-0.8,0.1-1.1s0.1-0.4,0.2-0.4
		c0,0,0.1,0,0.1,0.1V5z"/>
	<path d="M23.4,4.7l0.1-0.3c-0.1-0.1-0.1-0.1-0.1-0.1c-0.1,0-0.1,0.1-0.2,0.2c-0.1,0.1-0.1,0.3-0.1,0.5c0,0.1,0,0.3,0.1,0.5l0,0.2
		c0.1,0.2,0.1,0.4,0.1,0.5c0,0.2,0,0.3-0.1,0.3c-0.1,0-0.1-0.1-0.1-0.2L23,6.7l0,0c0,0.1,0.1,0.1,0.2,0.1c0.1,0,0.1-0.1,0.2-0.2
		c0.1-0.2,0.1-0.4,0.1-0.6c0-0.2,0-0.3-0.1-0.6l-0.1-0.2c-0.1-0.2-0.1-0.4-0.1-0.5c0-0.2,0-0.2,0.1-0.2C23.4,4.6,23.4,4.6,23.4,4.7z
		"/>
	<path d="M23.6,6.5c0,0.1,0.1,0.2,0.1,0.4l0.1-0.4c0-0.2-0.1-0.3-0.1-0.4L23.6,6.5z"/>
	<path d="M23.7,3.3c0,0.3,0,0.6,0,1c0,0.3,0,0.6,0,1l0,0.4l0.1-0.2l0,0l0-0.5c0,0,0-0.1,0-0.4c0-0.4,0-0.8,0-1.1c0-0.1,0-0.3,0-0.4
		L23.7,3.3z"/>
	<path d="M24.1,3.3c0,0.3,0,0.6,0,1c0,0.3,0,0.6,0,1l0,0.4l0.1-0.2l0,0l0-0.5c0,0,0-0.1,0-0.4c0-0.4,0-0.8,0-1.1c0-0.1,0-0.3,0-0.4
		L24.1,3.3z"/>
	<path d="M24,6.5c0,0.1,0.1,0.2,0.1,0.4l0.1-0.4c0-0.2-0.1-0.3-0.1-0.4L24,6.5z"/>
	<ellipse class="st3" cx="26.3" cy="8.9" rx="1.1" ry="0.8"/>
	<path class="st3" d="M29,9.4c-0.2-0.1-0.3-0.1-0.5-0.1c-0.6,0-1.1,0.4-1.1,0.8s0.5,0.8,1.1,0.8c0.5,0,0.9-0.2,1-0.5
		c0.1-0.1,0.1-0.2,0.1-0.3C29.6,9.8,29.4,9.5,29,9.4z"/>
</g>
</svg>
