<!-- Combined SVGs --> 
<svg xmlns="http://www.w3.org/2000/svg" style="display: none;"> 

<!-- Single Woman --> 
<symbol id="woman" viewBox="0 0 143.61 426">
  <title>woman</title>
  <g>
    <g>
      <path d="M280,376.5A54.5,54.5,0,1,1,334.5,322,54.56,54.56,0,0,1,280,376.5Z" transform="translate(-208 -267)"/>
      <path d="M280,268a54,54,0,1,1-54,54,54.06,54.06,0,0,1,54-54m0-1a55,55,0,1,0,55,55,55,55,0,0,0-55-55Z" transform="translate(-208 -267)"/>
    </g>
    <g>
      <path d="M301,692.5A11.51,11.51,0,0,1,289.5,681V563A11.51,11.51,0,0,1,301,551.5v-1H257v1A11.51,11.51,0,0,1,268.5,563V681A11.51,11.51,0,0,1,257,692.5H246A11.51,11.51,0,0,1,234.5,681V563A11.51,11.51,0,0,1,246,551.5v-1H208.75l71.06-172.09L350.87,550.5H312v1A11.51,11.51,0,0,1,323.5,563V681A11.51,11.51,0,0,1,312,692.5Z" transform="translate(-208 -267)"/>
      <path d="M279.81,379.72,350.12,550H312v2a11,11,0,0,1,11,11V681a11,11,0,0,1-11,11H301a11,11,0,0,1-11-11V563a11,11,0,0,1,11-11v-2H257v2a11,11,0,0,1,11,11V681a11,11,0,0,1-11,11H246a11,11,0,0,1-11-11V563a11,11,0,0,1,11-11v-2H209.49l70.31-170.28m0-2.62L208,551h38a12,12,0,0,0-12,12V681a12,12,0,0,0,12,12h11a12,12,0,0,0,12-12V563a12,12,0,0,0-12-12h44a12,12,0,0,0-12,12V681a12,12,0,0,0,12,12h11a12,12,0,0,0,12-12V563a12,12,0,0,0-12-12h39.61L279.81,377.1Z" transform="translate(-208 -267)"/>
    </g>
  </g>
</symbol>

<!-- Man --> 
<symbol id="man" viewBox="0 0 110 426">
  <title>man</title>
  <g>
    <g>
      <path d="M280,376.5A54.5,54.5,0,1,1,334.5,322,54.56,54.56,0,0,1,280,376.5Z" transform="translate(-225 -267)"/>
      <path d="M280,268a54,54,0,1,1-54,54,54.06,54.06,0,0,1,54-54m0-1a55,55,0,1,0,55,55,55,55,0,0,0-55-55Z" transform="translate(-225 -267)"/>
    </g>
    <g>
      <path d="M299,692.5A11.51,11.51,0,0,1,287.5,681V563A11.51,11.51,0,0,1,299,551.5v-1H260v1A11.51,11.51,0,0,1,271.5,563V681A11.51,11.51,0,0,1,260,692.5H249A11.51,11.51,0,0,1,237.5,681V563A11.51,11.51,0,0,1,249,551.5v-1h-8A11.51,11.51,0,0,1,229.5,539V389A11.51,11.51,0,0,1,241,377.5h78A11.51,11.51,0,0,1,330.5,389V539A11.51,11.51,0,0,1,319,550.5h-9v1A11.51,11.51,0,0,1,321.5,563V681A11.51,11.51,0,0,1,310,692.5Z" transform="translate(-225 -267)"/>
      <path d="M319,378a11,11,0,0,1,11,11V539a11,11,0,0,1-11,11h-9v2a11,11,0,0,1,11,11V681a11,11,0,0,1-11,11H299a11,11,0,0,1-11-11V563a11,11,0,0,1,11-11v-2H260v2a11,11,0,0,1,11,11V681a11,11,0,0,1-11,11H249a11,11,0,0,1-11-11V563a11,11,0,0,1,11-11v-2h-8a11,11,0,0,1-11-11V389a11,11,0,0,1,11-11h78m0-1H241a12,12,0,0,0-12,12V539a12,12,0,0,0,12,12h8a12,12,0,0,0-12,12V681a12,12,0,0,0,12,12h11a12,12,0,0,0,12-12V563a12,12,0,0,0-12-12h39a12,12,0,0,0-12,12V681a12,12,0,0,0,12,12h11a12,12,0,0,0,12-12V563a12,12,0,0,0-12-12h9a12,12,0,0,0,12-12V389a12,12,0,0,0-12-12Z" transform="translate(-225 -267)"/>
    </g>
  </g>
</symbol>

<!-- Man and Woman --> 
<symbol id="regular" viewBox="0 0 303 426">
  <title>regular</title>
  <g>
    <g>
      <path d="M188,367.5A54.5,54.5,0,1,1,242.5,313,54.56,54.56,0,0,1,188,367.5Z" transform="translate(-116 -258)"/>
      <path d="M188,259a54,54,0,1,1-54,54,54.06,54.06,0,0,1,54-54m0-1a55,55,0,1,0,55,55,55,55,0,0,0-55-55Z" transform="translate(-116 -258)"/>
    </g>
    <g>
      <path d="M209,683.5A11.51,11.51,0,0,1,197.5,672V554A11.51,11.51,0,0,1,209,542.5v-1H165v1A11.51,11.51,0,0,1,176.5,554V672A11.51,11.51,0,0,1,165,683.5H154A11.51,11.51,0,0,1,142.5,672V554A11.51,11.51,0,0,1,154,542.5v-1H116.75l71.06-172.09L258.87,541.5H220v1A11.51,11.51,0,0,1,231.5,554V672A11.51,11.51,0,0,1,220,683.5Z" transform="translate(-116 -258)"/>
      <path d="M187.81,370.72,258.12,541H220v2a11,11,0,0,1,11,11V672a11,11,0,0,1-11,11H209a11,11,0,0,1-11-11V554a11,11,0,0,1,11-11v-2H165v2a11,11,0,0,1,11,11V672a11,11,0,0,1-11,11H154a11,11,0,0,1-11-11V554a11,11,0,0,1,11-11v-2H117.49l70.31-170.28m0-2.62L116,542h38a12,12,0,0,0-12,12V672a12,12,0,0,0,12,12h11a12,12,0,0,0,12-12V554a12,12,0,0,0-12-12h44a12,12,0,0,0-12,12V672a12,12,0,0,0,12,12h11a12,12,0,0,0,12-12V554a12,12,0,0,0-12-12h39.61L187.81,368.1Z" transform="translate(-116 -258)" />
    </g>
  </g>
  <g>
    <g>
      <path d="M364,367.5A54.5,54.5,0,1,1,418.5,313,54.56,54.56,0,0,1,364,367.5Z" transform="translate(-116 -258)"/>
      <path d="M364,259a54,54,0,1,1-54,54,54.06,54.06,0,0,1,54-54m0-1a55,55,0,1,0,55,55,55,55,0,0,0-55-55Z" transform="translate(-116 -258)"/>
    </g>
    <g>
      <path d="M383,683.5A11.51,11.51,0,0,1,371.5,672V554A11.51,11.51,0,0,1,383,542.5v-1H344v1A11.51,11.51,0,0,1,355.5,554V672A11.51,11.51,0,0,1,344,683.5H333A11.51,11.51,0,0,1,321.5,672V554A11.51,11.51,0,0,1,333,542.5v-1h-8A11.51,11.51,0,0,1,313.5,530V380A11.51,11.51,0,0,1,325,368.5h78A11.51,11.51,0,0,1,414.5,380V530A11.51,11.51,0,0,1,403,541.5h-9v1A11.51,11.51,0,0,1,405.5,554V672A11.51,11.51,0,0,1,394,683.5Z" transform="translate(-116 -258)"/>
      <path d="M403,369a11,11,0,0,1,11,11V530a11,11,0,0,1-11,11h-9v2a11,11,0,0,1,11,11V672a11,11,0,0,1-11,11H383a11,11,0,0,1-11-11V554a11,11,0,0,1,11-11v-2H344v2a11,11,0,0,1,11,11V672a11,11,0,0,1-11,11H333a11,11,0,0,1-11-11V554a11,11,0,0,1,11-11v-2h-8a11,11,0,0,1-11-11V380a11,11,0,0,1,11-11h78m0-1H325a12,12,0,0,0-12,12V530a12,12,0,0,0,12,12h8a12,12,0,0,0-12,12V672a12,12,0,0,0,12,12h11a12,12,0,0,0,12-12V554a12,12,0,0,0-12-12h39a12,12,0,0,0-12,12V672a12,12,0,0,0,12,12h11a12,12,0,0,0,12-12V554a12,12,0,0,0-12-12h9a12,12,0,0,0,12-12V380a12,12,0,0,0-12-12Z" transform="translate(-116 -258)" />
    </g>
  </g>
</symbol>

<!-- Combined feminine and masculine signs --> 
<symbol id="manWomanSymbol" viewBox="0 0 346.95 444.15">
  <title>manWomanSymbol</title>
  <g>
    <path d="M220.5,733.5v-38h-42v-36h42V614l-.42-.07A135.53,135.53,0,0,1,105.5,480c0-74.71,60.79-135.5,135.5-135.5A135.39,135.39,0,0,1,330.17,378l.33.29,87.14-79,8.28,9.14a6.15,6.15,0,0,0-.32,5.87,5.05,5.05,0,0,0,4.72,2.84,5.36,5.36,0,0,0,2.82-.74l5.28,5.82-87.16,79,.26.36a135.53,135.53,0,0,1-89.6,212.29l-.42.07V659.5h43v36h-43v38Zm20.5-369A115.5,115.5,0,1,0,356.5,480,115.63,115.63,0,0,0,241,364.5Z" transform="translate(-105 -289.85)"/>
    <path d="M417.61,300l7.7,8.5a6.6,6.6,0,0,0-.15,6,5.54,5.54,0,0,0,5.17,3.12,6,6,0,0,0,2.71-.61l4.68,5.16-86.46,78.35-.66.6.51.72A135,135,0,0,1,261.85,613.4l-.85.13V660h43v35H261v38H221V695H179V660h42V613.53l-.85-.13a135,135,0,1,1,109.69-235l.67.59.66-.6L417.61,300M241,596a116,116,0,1,0-82-34,115.24,115.24,0,0,0,82,34M417.68,298.61l-87.18,79A136,136,0,1,0,220,614.39V659H178v37h42v38h42V696h43V659H262V614.39a136,136,0,0,0,89.93-213.08l87.2-79-5.9-6.51a4.78,4.78,0,0,1-2.9.89c-4.73,0-6-5.38-3.77-8.25l-8.89-9.81ZM241,595A115,115,0,1,1,356,480,115,115,0,0,1,241,595Z" transform="translate(-105 -289.85)" />
  </g>
  <g>
    <path d="M432.3,375.3V316.83a5,5,0,0,0,2.74-2.49,6.15,6.15,0,0,0,.18-4.91l-.1-.25a5.06,5.06,0,0,0-1.54-2l-.09-.06a4.71,4.71,0,0,0-.65-.4l-.12-.05a5.49,5.49,0,0,0-.73-.28,5.75,5.75,0,0,0-1.67-.24,5,5,0,0,0-4.93,3.33H366.5V290.35h84.75v.2h.2V375.3Z" transform="translate(-105 -289.85)"/>
    <path d="M450.75,290.85v.2h.2V374.8H432.8V317.16a5.46,5.46,0,0,0,2.69-2.61,6.66,6.66,0,0,0,.2-5.32l0-.06c0-.07-.05-.15-.09-.22a5.54,5.54,0,0,0-1.7-2.15l-.09-.06a5.27,5.27,0,0,0-.73-.45l-.17-.08a5.52,5.52,0,0,0-.76-.29,6.24,6.24,0,0,0-1.81-.26,5.51,5.51,0,0,0-5.27,3.33H367V290.85h83.75m1-1H366V310h59.76a4.56,4.56,0,0,1,4.58-3.33,5.28,5.28,0,0,1,1.53.22,4.54,4.54,0,0,1,.62.24l.14.06a4.32,4.32,0,0,1,.59.37l.07,0a4.58,4.58,0,0,1,1.39,1.77c0,.08.06.16.09.23,1,2.56,0,6-3,6.86V375.8H452V290h-.2v-.2Z" transform="translate(-105 -289.85)" />
  </g>
</symbol>

<!-- Intersex/Transgender --> 
<symbol id="mixed" viewBox="0 0 127 426">
  <title>mixed</title>
  <g>
    <g>
      <path d="M280,415.5A54.5,54.5,0,1,1,334.5,361,54.56,54.56,0,0,1,280,415.5Z" transform="translate(-208 -306)"/>
      <path d="M280,307a54,54,0,1,1-54,54,54.06,54.06,0,0,1,54-54m0-1a55,55,0,1,0,55,55,55,55,0,0,0-55-55Z" transform="translate(-208 -306)" />
    </g>
    <g>
      <path d="M296,731.5A11.51,11.51,0,0,1,284.5,720V602A11.51,11.51,0,0,1,296,590.5v-1H259v1A11.51,11.51,0,0,1,270.5,602V720A11.51,11.51,0,0,1,259,731.5H248A11.51,11.51,0,0,1,236.5,720V602A11.51,11.51,0,0,1,248,590.5v-1H208.75l71.06-172.09.76,1.83.52-.39A11.36,11.36,0,0,1,288,416.5h27A11.51,11.51,0,0,1,326.5,428V530.49l.13.31s0,0,0,.06c0,.41,0,.81-.05,1.21s0,.57,0,.86a15.67,15.67,0,0,0,.29,3.23,3.08,3.08,0,0,0,.24.74,6.2,6.2,0,0,0,.19,1.77q-.1,1.78-.17,3.56a5.91,5.91,0,0,0-.2,1.52v9.1l0,.06-.08.5a16.67,16.67,0,0,0-.27,2.33,11.21,11.21,0,0,0,.17,2,16.74,16.74,0,0,0,.06,4.26l0,.21v.2a4.9,4.9,0,0,0-.56,2.5l0,.67c.05,1.24.1,2.41.09,3.63-.08.58-.2,1.24-.31,1.88a24.09,24.09,0,0,0-.43,3.16c-.08,2.53-.34,5.09-.58,7.56l-.17,1.78a5.82,5.82,0,0,0,0,1.31,7,7,0,0,1-3,2.85,5.23,5.23,0,0,0-2,1.76H307v1A11.51,11.51,0,0,1,318.5,602V720A11.51,11.51,0,0,1,307,731.5Z" transform="translate(-208 -306)"/>
      <path d="M315,417a11,11,0,0,1,11,11V530.59l.08.18,0,.12c0,.39,0,.77-.05,1.16s0,.58,0,.87a16,16,0,0,0,.29,3.33,3.36,3.36,0,0,0,.23.75,6.7,6.7,0,0,0,.19,1.71q-.09,1.72-.16,3.44a6.4,6.4,0,0,0-.2,1.59v7.16q0,.93,0,1.86l0,.1-.07.45a16.93,16.93,0,0,0-.28,2.42,11.36,11.36,0,0,0,.17,2,17.26,17.26,0,0,0,.06,4.21l0,.22v.1a5.39,5.39,0,0,0-.57,2.66l0,.66c.05,1.22.1,2.37.09,3.55-.09.61-.2,1.25-.31,1.87a24.41,24.41,0,0,0-.43,3.22c-.09,2.51-.34,5.07-.58,7.53q-.09.89-.17,1.78a6.3,6.3,0,0,0,0,1.25,6.5,6.5,0,0,1-2.74,2.51,5.81,5.81,0,0,0-2.08,1.71H307v2a11,11,0,0,1,11,11V720a11,11,0,0,1-11,11H296a11,11,0,0,1-11-11V602a11,11,0,0,1,11-11v-2H259v2a11,11,0,0,1,11,11V720a11,11,0,0,1-11,11H248a11,11,0,0,1-11-11V602a11,11,0,0,1,11-11v-2H209.49l70.31-170.28,0,.11.5,1.2,1-.78A10.87,10.87,0,0,1,288,417h27m0-1H288a11.91,11.91,0,0,0-7.22,2.45l-1-2.35L208,590h40a12,12,0,0,0-12,12V720a12,12,0,0,0,12,12h11a12,12,0,0,0,12-12V602a12,12,0,0,0-12-12h37a12,12,0,0,0-12,12V720a12,12,0,0,0,12,12h11a12,12,0,0,0,12-12V602a12,12,0,0,0-12-12h13a4.64,4.64,0,0,1,2-1.82,7.45,7.45,0,0,0,3.32-3.21,5.2,5.2,0,0,1,0-1.35c.3-3.13.65-6.24.75-9.37,0-1.41.5-3.3.74-5.06,0-1.45-.06-2.87-.12-4.32a4.39,4.39,0,0,1,.55-2.34l0-.62a16.22,16.22,0,0,1-.05-4.2,10.92,10.92,0,0,1-.18-2,20.23,20.23,0,0,1,.34-2.74l0-.17q0-1.24,0-2.48v-6.62a5.35,5.35,0,0,1,.19-1.44q.07-1.85.17-3.69a5.74,5.74,0,0,1-.19-1.82,2.8,2.8,0,0,1-.25-.72A15,15,0,0,1,327,533c0-.69.09-1.38.1-2.08,0,0,0-.09,0-.14l-.14-.34V428a12,12,0,0,0-12-12Z" transform="translate(-208 -306)"/>
    </g>
  </g>
</symbol>

<!-- Man, Woman & Intersex --> 
<symbol id="mixed3" viewBox="0 0 438 426">
  <title>mixed3</title>
  <g>
    <g>
      <path d="M329,176.5A54.5,54.5,0,1,1,383.5,122,54.56,54.56,0,0,1,329,176.5Z" transform="translate(-257 -67)"/>
      <path d="M329,68a54,54,0,1,1-54,54,54.06,54.06,0,0,1,54-54m0-1a55,55,0,1,0,55,55,55,55,0,0,0-55-55Z" transform="translate(-257 -67)" />
    </g>
    <g>
      <path d="M350,492.5A11.51,11.51,0,0,1,338.5,481V363A11.51,11.51,0,0,1,350,351.5v-1H306v1A11.51,11.51,0,0,1,317.5,363V481A11.51,11.51,0,0,1,306,492.5H295A11.51,11.51,0,0,1,283.5,481V363A11.51,11.51,0,0,1,295,351.5v-1H257.75l71.06-172.09L399.87,350.5H361v1A11.51,11.51,0,0,1,372.5,363V481A11.51,11.51,0,0,1,361,492.5Z" transform="translate(-257 -67)"/>
      <path d="M328.81,179.72,399.12,350H361v2a11,11,0,0,1,11,11V481a11,11,0,0,1-11,11H350a11,11,0,0,1-11-11V363a11,11,0,0,1,11-11v-2H306v2a11,11,0,0,1,11,11V481a11,11,0,0,1-11,11H295a11,11,0,0,1-11-11V363a11,11,0,0,1,11-11v-2H258.49l70.31-170.28m0-2.62L257,351h38a12,12,0,0,0-12,12V481a12,12,0,0,0,12,12h11a12,12,0,0,0,12-12V363a12,12,0,0,0-12-12h44a12,12,0,0,0-12,12V481a12,12,0,0,0,12,12h11a12,12,0,0,0,12-12V363a12,12,0,0,0-12-12h39.61L328.81,177.1Z" transform="translate(-257 -67)" />
    </g>
  </g>
  <g>
    <g>
      <path d="M640,176.5A54.5,54.5,0,1,1,694.5,122,54.56,54.56,0,0,1,640,176.5Z" transform="translate(-257 -67)"/>
      <path d="M640,68a54,54,0,1,1-54,54,54.06,54.06,0,0,1,54-54m0-1a55,55,0,1,0,55,55,55,55,0,0,0-55-55Z" transform="translate(-257 -67)" />
    </g>
    <g>
      <path d="M659,492.5A11.51,11.51,0,0,1,647.5,481V363A11.51,11.51,0,0,1,659,351.5v-1H620v1A11.51,11.51,0,0,1,631.5,363V481A11.51,11.51,0,0,1,620,492.5H609A11.51,11.51,0,0,1,597.5,481V363A11.51,11.51,0,0,1,609,351.5v-1h-8A11.51,11.51,0,0,1,589.5,339V189A11.51,11.51,0,0,1,601,177.5h78A11.51,11.51,0,0,1,690.5,189V339A11.51,11.51,0,0,1,679,350.5h-9v1A11.51,11.51,0,0,1,681.5,363V481A11.51,11.51,0,0,1,670,492.5Z" transform="translate(-257 -67)"/>
      <path d="M679,178a11,11,0,0,1,11,11V339a11,11,0,0,1-11,11h-9v2a11,11,0,0,1,11,11V481a11,11,0,0,1-11,11H659a11,11,0,0,1-11-11V363a11,11,0,0,1,11-11v-2H620v2a11,11,0,0,1,11,11V481a11,11,0,0,1-11,11H609a11,11,0,0,1-11-11V363a11,11,0,0,1,11-11v-2h-8a11,11,0,0,1-11-11V189a11,11,0,0,1,11-11h78m0-1H601a12,12,0,0,0-12,12V339a12,12,0,0,0,12,12h8a12,12,0,0,0-12,12V481a12,12,0,0,0,12,12h11a12,12,0,0,0,12-12V363a12,12,0,0,0-12-12h39a12,12,0,0,0-12,12V481a12,12,0,0,0,12,12h11a12,12,0,0,0,12-12V363a12,12,0,0,0-12-12h9a12,12,0,0,0,12-12V189a12,12,0,0,0-12-12Z" transform="translate(-257 -67)" />
    </g>
  </g>
  <g>
    <g>
      <path d="M494,176.5A54.5,54.5,0,1,1,548.5,122,54.56,54.56,0,0,1,494,176.5Z" transform="translate(-257 -67)"/>
      <path d="M494,68a54,54,0,1,1-54,54,54.06,54.06,0,0,1,54-54m0-1a55,55,0,1,0,55,55,55,55,0,0,0-55-55Z" transform="translate(-257 -67)" />
    </g>
    <g>
      <path d="M510,492.5A11.51,11.51,0,0,1,498.5,481V363A11.51,11.51,0,0,1,510,351.5v-1H473v1A11.51,11.51,0,0,1,484.5,363V481A11.51,11.51,0,0,1,473,492.5H462A11.51,11.51,0,0,1,450.5,481V363A11.51,11.51,0,0,1,462,351.5v-1H422.75l71.06-172.09.76,1.83.52-.39A11.36,11.36,0,0,1,502,177.5h27A11.51,11.51,0,0,1,540.5,189V291.49l.13.31s0,0,0,.06c0,.41,0,.81-.05,1.21s0,.57,0,.86a15.67,15.67,0,0,0,.29,3.23,3.08,3.08,0,0,0,.24.74,6.2,6.2,0,0,0,.19,1.77q-.1,1.78-.17,3.56a5.91,5.91,0,0,0-.2,1.52v9.1l0,.06-.08.5a16.67,16.67,0,0,0-.27,2.33,11.21,11.21,0,0,0,.17,2,16.74,16.74,0,0,0,.06,4.26l0,.21v.2a4.9,4.9,0,0,0-.56,2.5l0,.67c.05,1.24.1,2.41.09,3.63-.08.58-.2,1.24-.31,1.88a24.09,24.09,0,0,0-.43,3.16c-.08,2.53-.34,5.09-.58,7.56l-.17,1.78a5.82,5.82,0,0,0,0,1.31,7,7,0,0,1-3,2.85,5.23,5.23,0,0,0-2,1.76H521v1A11.51,11.51,0,0,1,532.5,363V481A11.51,11.51,0,0,1,521,492.5Z" transform="translate(-257 -67)"/>
      <path d="M529,178a11,11,0,0,1,11,11V291.59l.08.18,0,.12c0,.39,0,.77-.05,1.16s0,.58,0,.87a16,16,0,0,0,.29,3.33,3.36,3.36,0,0,0,.23.75,6.7,6.7,0,0,0,.19,1.71q-.09,1.72-.16,3.44a6.4,6.4,0,0,0-.2,1.59v7.16q0,.93,0,1.86l0,.1-.07.45a16.94,16.94,0,0,0-.28,2.42,11.36,11.36,0,0,0,.17,2,17.25,17.25,0,0,0,.06,4.21l0,.22v.1a5.39,5.39,0,0,0-.57,2.66l0,.66c.05,1.22.1,2.37.09,3.55-.09.61-.2,1.25-.31,1.87a24.42,24.42,0,0,0-.43,3.22c-.09,2.51-.34,5.07-.58,7.53q-.09.89-.17,1.78a6.3,6.3,0,0,0,0,1.25,6.5,6.5,0,0,1-2.74,2.51,5.81,5.81,0,0,0-2.08,1.71H521v2a11,11,0,0,1,11,11V481a11,11,0,0,1-11,11H510a11,11,0,0,1-11-11V363a11,11,0,0,1,11-11v-2H473v2a11,11,0,0,1,11,11V481a11,11,0,0,1-11,11H462a11,11,0,0,1-11-11V363a11,11,0,0,1,11-11v-2H423.49l70.31-170.28,0,.11.5,1.2,1-.78A10.87,10.87,0,0,1,502,178h27m0-1H502a11.91,11.91,0,0,0-7.22,2.45l-1-2.35L422,351h40a12,12,0,0,0-12,12V481a12,12,0,0,0,12,12h11a12,12,0,0,0,12-12V363a12,12,0,0,0-12-12h37a12,12,0,0,0-12,12V481a12,12,0,0,0,12,12h11a12,12,0,0,0,12-12V363a12,12,0,0,0-12-12h13a4.64,4.64,0,0,1,2-1.82,7.45,7.45,0,0,0,3.32-3.21,5.2,5.2,0,0,1,0-1.35c.3-3.13.65-6.24.75-9.37,0-1.41.5-3.3.74-5.06,0-1.45-.06-2.87-.12-4.32a4.39,4.39,0,0,1,.55-2.34l0-.62a16.22,16.22,0,0,1-.05-4.2,10.92,10.92,0,0,1-.18-2,20.23,20.23,0,0,1,.34-2.74l0-.17q0-1.24,0-2.48v-6.62a5.35,5.35,0,0,1,.19-1.44q.07-1.85.17-3.69a5.74,5.74,0,0,1-.19-1.82,2.8,2.8,0,0,1-.25-.72A15,15,0,0,1,541,294c0-.69.09-1.38.1-2.08,0,0,0-.09,0-.14l-.14-.34V189a12,12,0,0,0-12-12Z" transform="translate(-257 -67)"/>
    </g>
  </g>
</symbol>

<!-- Wheelchair accessible--> 
<symbol id="wheelchair" viewBox="0 0 328.25 458">
  <title>wheelchair</title>
  <g>
    <path d="M277.5,769.5c-83.81,0-152-68.19-152-152s68.19-152,152-152,152,68.19,152,152S361.31,769.5,277.5,769.5Zm2.5-286c-74.16,0-134.5,60.34-134.5,134.5S205.84,752.5,280,752.5,414.5,692.16,414.5,618,354.16,483.5,280,483.5Z" transform="translate(-125 -312)"/>
    <path d="M277.5,466a151.5,151.5,0,1,1-107.13,44.37A150.51,150.51,0,0,1,277.5,466M280,753a135,135,0,1,0-95.46-39.54A134.12,134.12,0,0,0,280,753m-2.5-288A152.5,152.5,0,1,0,430,617.5,152.5,152.5,0,0,0,277.5,465ZM280,752A134,134,0,1,1,414,618,134,134,0,0,1,280,752Z" transform="translate(-125 -312)" />
  </g>
  <g>
    <g>
      <path d="M420.6,694.21a11.6,11.6,0,0,1-10.38-6.46l-44.4-91.25H240A11.51,11.51,0,0,1,228.5,585V435A11.51,11.51,0,0,1,240,423.5h78A11.51,11.51,0,0,1,329.5,435v98.5H390A11.51,11.51,0,0,1,401.5,545v19.65l50.1,103A11.51,11.51,0,0,1,446.29,683l-20.7,10.07a11.32,11.32,0,0,1-5,1.15Z" transform="translate(-125 -312)"/>
      <path d="M318,424a11,11,0,0,1,11,11v99h61a11,11,0,0,1,11,11v19.76l.1.21,50,102.87a11,11,0,0,1-5.08,14.7l-20.7,10.07a10.83,10.83,0,0,1-4.78,1.1,11.09,11.09,0,0,1-9.93-6.18l-44.26-91-.27-.56H240a11,11,0,0,1-11-11V435a11,11,0,0,1,11-11h78m0-1H240a12,12,0,0,0-12,12V585a12,12,0,0,0,12,12H365.51l44.26,91a12,12,0,0,0,10.83,6.74,11.89,11.89,0,0,0,5.21-1.2l20.7-10.07a12,12,0,0,0,5.54-16L402,564.53V545a12,12,0,0,0-12-12H330V435a12,12,0,0,0-12-12Z" transform="translate(-125 -312)" />
    </g>
    <g>
      <path d="M278,421.5A54.5,54.5,0,1,1,332.5,367,54.56,54.56,0,0,1,278,421.5Z" transform="translate(-125 -312)"/>
      <path d="M278,313a54,54,0,1,1-54,54,54.06,54.06,0,0,1,54-54m0-1a55,55,0,1,0,55,55,55,55,0,0,0-55-55Z" transform="translate(-125 -312)" />
    </g>
  </g>
</symbol>


<!-- Everyone! --> 
<symbol id="everyone-compound" viewBox="0 0 756.95 478.66">
  <title>everyone-compound</title>
  <g>
    <polygon points="71.81 116.75 0 290.66 143.61 290.66 71.81 116.75"/>
    <circle cx="72" cy="61.66" r="55"/>
    <rect x="26" y="290.66" width="35" height="142" rx="12" ry="12"/>
    <rect x="81" y="290.66" width="35" height="142" rx="12" ry="12"/>
  </g>
  <g>
    <circle cx="383" cy="61.66" r="55"/>
    <rect x="332" y="116.66" width="102" height="174" rx="12" ry="12"/>
    <rect x="340" y="290.66" width="35" height="142" rx="12" ry="12"/>
    <rect x="390" y="290.66" width="35" height="142" rx="12" ry="12"/>
  </g>
  <g>
    <circle cx="237" cy="61.66" r="55"/>
    <path d="M400.56,277.8a2.8,2.8,0,0,1-.25-.72A15,15,0,0,1,400,274c0-.69.09-1.38.1-2.08,0,0,0-.09,0-.14l-.14-.34V169a12,12,0,0,0-12-12H361a11.91,11.91,0,0,0-7.22,2.45l-1-2.35L281,331H393a4.64,4.64,0,0,1,2-1.82,7.45,7.45,0,0,0,3.32-3.21,5.2,5.2,0,0,1,0-1.35c.3-3.13.65-6.24.75-9.37,0-1.41.5-3.3.74-5.06,0-1.45-.06-2.87-.12-4.32a4.39,4.39,0,0,1,.55-2.34l0-.62a16.22,16.22,0,0,1-.05-4.2,10.92,10.92,0,0,1-.18-2,20.23,20.23,0,0,1,.34-2.74l0-.17q0-1.24,0-2.48v-6.62a5.35,5.35,0,0,1,.19-1.44q.07-1.85.17-3.69A5.74,5.74,0,0,1,400.56,277.8Z" transform="translate(-116 -40.34)"/>
    <rect x="193" y="290.66" width="35" height="142" rx="12" ry="12"/>
    <rect x="241" y="290.66" width="35" height="142" rx="12" ry="12"/>
  </g>
  <g>
    <circle cx="582.67" cy="47.91" r="47.91"/>
    <path d="M872.78,166.16V155H800.87v16.51h32.79l-62.58,55.42A114.43,114.43,0,0,0,744,209.67V149a12,12,0,0,0-12-12H667.11a12,12,0,0,0-12,12v57.74C612.35,222.86,582,263.38,582,310.84c0,55.7,41.81,101.86,96.44,110.13v36.56H643.22v30.32h35.22V519h35.22V487.86h36.06V457.53H713.66V421c41.93-6.35,76.31-35,90-73.2l9.1,18.7a12,12,0,0,0,16,5.54l15.25-7.42a12,12,0,0,0,5.54-16l-42.92-88.22V244.86a12,12,0,0,0-4.86-9.61l54.23-47.44v48.63H873V166.16ZM744,229q3.21,1.8,6.27,3.83H744ZM696,405.08c-53.26,0-96.44-42.2-96.44-94.25,0-37.75,22.71-70.31,55.5-85.35v51.13a12,12,0,0,0,12,12H774.9l16.77,34.48C785.53,369.35,745.06,405.08,696,405.08Z" transform="translate(-116 -40.34)"/>
  </g>
</symbol>

</svg>