<?xml version="1.0" encoding="utf-8"?>
<svg version="1.1" id="Layer_1" xmlns="http://www.w3.org/2000/svg" xmlns:xlink="http://www.w3.org/1999/xlink" x="0px" y="0px"
	 viewBox="0 0 960 560" enable-background="new 0 0 960 560" xml:space="preserve">
<g>
	<g>
		<g>
			<polygon fill="#FFFFFF" points="116.75,330.5 187.81,158.41 258.87,330.5 			"/>
		</g>
	</g>
	<g>
		<g>
			<path d="M187.81,159.72L258.12,330H117.49L187.81,159.72 M187.81,157.1L116,331h143.61L187.81,157.1L187.81,157.1z"/>
		</g>
	</g>
</g>
<g>
	<g>
		<g>
			<path fill="#FFFFFF" d="M188,156.5c-30.05,0-54.5-24.45-54.5-54.5s24.45-54.5,54.5-54.5s54.5,24.45,54.5,54.5
				S218.05,156.5,188,156.5z"/>
		</g>
	</g>
	<g>
		<g>
			<path d="M188,48c29.78,0,54,24.22,54,54s-24.22,54-54,54s-54-24.22-54-54S158.22,48,188,48 M188,47c-30.38,0-55,24.62-55,55
				s24.62,55,55,55s55-24.62,55-55S218.38,47,188,47L188,47z"/>
		</g>
	</g>
</g>
<g>
	<g>
		<g>
			<path fill="#FFFFFF" d="M499,156.5c-30.05,0-54.5-24.45-54.5-54.5s24.45-54.5,54.5-54.5s54.5,24.45,54.5,54.5
				S529.05,156.5,499,156.5z"/>
		</g>
	</g>
	<g>
		<g>
			<path d="M499,48c29.78,0,54,24.22,54,54s-24.22,54-54,54s-54-24.22-54-54S469.22,48,499,48 M499,47c-30.38,0-55,24.62-55,55
				s24.62,55,55,55s55-24.62,55-55S529.38,47,499,47L499,47z"/>
		</g>
	</g>
</g>
<g>
	<path fill="#FFFFFF" d="M460,330.5c-6.34,0-11.5-5.16-11.5-11.5V169c0-6.34,5.16-11.5,11.5-11.5h78c6.34,0,11.5,5.16,11.5,11.5v150
		c0,6.34-5.16,11.5-11.5,11.5H460z"/>
	<path d="M538,158c6.07,0,11,4.93,11,11v150c0,6.07-4.93,11-11,11h-78c-6.07,0-11-4.93-11-11V169c0-6.07,4.93-11,11-11H538 M538,157
		h-78c-6.6,0-12,5.4-12,12v150c0,6.6,5.4,12,12,12h78c6.6,0,12-5.4,12-12V169C550,162.4,544.6,157,538,157L538,157z"/>
</g>
<g>
	<g>
		<g>
			<path fill="#FFFFFF" d="M154,472.5c-6.34,0-11.5-5.16-11.5-11.5V343c0-6.34,5.16-11.5,11.5-11.5h11c6.34,0,11.5,5.16,11.5,11.5
				v118c0,6.34-5.16,11.5-11.5,11.5H154z"/>
		</g>
	</g>
	<g>
		<g>
			<path d="M165,332c6.07,0,11,4.93,11,11v118c0,6.07-4.93,11-11,11h-11c-6.07,0-11-4.93-11-11V343c0-6.07,4.93-11,11-11H165
				 M165,331h-11c-6.6,0-12,5.4-12,12v118c0,6.6,5.4,12,12,12h11c6.6,0,12-5.4,12-12V343C177,336.4,171.6,331,165,331L165,331z"/>
		</g>
	</g>
</g>
<g>
	<g>
		<g>
			<path fill="#FFFFFF" d="M209,472.5c-6.34,0-11.5-5.16-11.5-11.5V343c0-6.34,5.16-11.5,11.5-11.5h11c6.34,0,11.5,5.16,11.5,11.5
				v118c0,6.34-5.16,11.5-11.5,11.5H209z"/>
		</g>
	</g>
	<g>
		<g>
			<path d="M220,332c6.07,0,11,4.93,11,11v118c0,6.07-4.93,11-11,11h-11c-6.07,0-11-4.93-11-11V343c0-6.07,4.93-11,11-11H220
				 M220,331h-11c-6.6,0-12,5.4-12,12v118c0,6.6,5.4,12,12,12h11c6.6,0,12-5.4,12-12V343C232,336.4,226.6,331,220,331L220,331z"/>
		</g>
	</g>
</g>
<g>
	<g>
		<g>
			<path fill="#FFFFFF" d="M468,472.5c-6.34,0-11.5-5.16-11.5-11.5V343c0-6.34,5.16-11.5,11.5-11.5h11c6.34,0,11.5,5.16,11.5,11.5
				v118c0,6.34-5.16,11.5-11.5,11.5H468z"/>
		</g>
	</g>
	<g>
		<g>
			<path d="M479,332c6.07,0,11,4.93,11,11v118c0,6.07-4.93,11-11,11h-11c-6.07,0-11-4.93-11-11V343c0-6.07,4.93-11,11-11H479
				 M479,331h-11c-6.6,0-12,5.4-12,12v118c0,6.6,5.4,12,12,12h11c6.6,0,12-5.4,12-12V343C491,336.4,485.6,331,479,331L479,331z"/>
		</g>
	</g>
</g>
<g>
	<g>
		<g>
			<path fill="#FFFFFF" d="M518,472.5c-6.34,0-11.5-5.16-11.5-11.5V343c0-6.34,5.16-11.5,11.5-11.5h11c6.34,0,11.5,5.16,11.5,11.5
				v118c0,6.34-5.16,11.5-11.5,11.5H518z"/>
		</g>
	</g>
	<g>
		<g>
			<path d="M529,332c6.07,0,11,4.93,11,11v118c0,6.07-4.93,11-11,11h-11c-6.07,0-11-4.93-11-11V343c0-6.07,4.93-11,11-11H529
				 M529,331h-11c-6.6,0-12,5.4-12,12v118c0,6.6,5.4,12,12,12h11c6.6,0,12-5.4,12-12V343C541,336.4,535.6,331,529,331L529,331z"/>
		</g>
	</g>
</g>
<g>
	<g>
		<g>
			<path fill="#FFFFFF" d="M353,156.5c-30.05,0-54.5-24.45-54.5-54.5s24.45-54.5,54.5-54.5s54.5,24.45,54.5,54.5
				S383.05,156.5,353,156.5z"/>
		</g>
	</g>
	<g>
		<g>
			<path d="M353,48c29.78,0,54,24.22,54,54s-24.22,54-54,54s-54-24.22-54-54S323.22,48,353,48 M353,47c-30.38,0-55,24.62-55,55
				s24.62,55,55,55s55-24.62,55-55S383.38,47,353,47L353,47z"/>
		</g>
	</g>
</g>
<g>
	<g>
		<g>
			<path fill="#FFFFFF" d="M281.75,330.5l71.06-172.09l46.82,113.39c0,0.02,0,0.05,0,0.07c-0.01,0.4-0.03,0.8-0.05,1.21
				c-0.02,0.29-0.03,0.57-0.04,0.86c-0.04,1.12,0.11,2.22,0.29,3.23c0.05,0.27,0.15,0.53,0.24,0.74c-0.02,0.6,0.04,1.19,0.19,1.77
				c-0.07,1.19-0.12,2.37-0.17,3.56c-0.13,0.49-0.2,1-0.2,1.52v6.62l-0.01,2.47l-0.02,0.09l-0.08,0.46
				c-0.13,0.76-0.26,1.55-0.27,2.35c-0.01,0.68,0.07,1.34,0.17,1.97c-0.16,1.25-0.14,2.6,0.06,4.26l-0.02,0.21l-0.01,0.21
				c-0.41,0.78-0.6,1.62-0.56,2.5l0.03,0.64c0.05,1.25,0.1,2.44,0.09,3.66c-0.08,0.58-0.2,1.24-0.31,1.88
				c-0.2,1.15-0.4,2.23-0.43,3.16c-0.09,2.53-0.34,5.09-0.58,7.56l-0.17,1.78c-0.04,0.45-0.04,0.88,0.02,1.31
				c-0.7,1.24-1.69,2.17-3.03,2.85c-0.88,0.45-1.56,1.04-2.04,1.76H281.75z"/>
		</g>
	</g>
	<g>
		<g>
			<path d="M352.81,159.72l46.32,112.17c-0.01,0.39-0.03,0.77-0.05,1.16c-0.02,0.29-0.03,0.58-0.05,0.87
				c-0.04,1.17,0.11,2.3,0.29,3.33c0.05,0.28,0.14,0.54,0.23,0.75c-0.01,0.58,0.05,1.16,0.19,1.71c-0.06,1.15-0.12,2.29-0.16,3.44
				c-0.13,0.52-0.2,1.05-0.2,1.59l0,6.62l0,0.53c0,0.62-0.01,1.24-0.01,1.86l-0.02,0.1l-0.07,0.45c-0.13,0.78-0.26,1.59-0.28,2.42
				c-0.01,0.69,0.07,1.36,0.17,1.99c-0.15,1.25-0.14,2.59,0.06,4.21l-0.02,0.22l-0.01,0.1c-0.42,0.83-0.61,1.72-0.57,2.66l0.03,0.65
				c0.05,1.22,0.1,2.37,0.09,3.55c-0.09,0.61-0.2,1.25-0.31,1.87c-0.21,1.17-0.4,2.27-0.43,3.22c-0.09,2.51-0.34,5.07-0.58,7.54
				c-0.06,0.59-0.12,1.19-0.17,1.78c-0.04,0.42-0.04,0.84,0,1.25c-0.64,1.08-1.54,1.91-2.74,2.51c-0.87,0.44-1.56,1.01-2.08,1.71
				H282.49L352.81,159.72 M352.81,157.1L281,331h111.99c0.41-0.71,1.05-1.34,1.99-1.82c1.6-0.81,2.63-1.92,3.32-3.21
				c-0.07-0.41-0.09-0.86-0.04-1.35c0.3-3.13,0.65-6.24,0.75-9.38c0.05-1.41,0.5-3.3,0.74-5.06c0.01-1.45-0.06-2.87-0.12-4.32
				c-0.04-0.9,0.18-1.68,0.55-2.34c0.01-0.21,0.03-0.42,0.04-0.62c-0.18-1.49-0.23-2.85-0.05-4.2c-0.1-0.65-0.19-1.3-0.18-1.95
				c0.02-0.91,0.2-1.83,0.34-2.74c0.01-0.06,0.02-0.11,0.03-0.17c0-0.82,0.01-1.65,0.01-2.48v-6.62c0-0.53,0.07-1,0.19-1.44
				c0.05-1.23,0.11-2.46,0.17-3.69c-0.16-0.59-0.22-1.2-0.19-1.82c-0.12-0.24-0.21-0.48-0.25-0.72c-0.18-1.04-0.32-2.07-0.28-3.13
				c0.03-0.69,0.09-1.38,0.1-2.08c0-0.05,0.01-0.09,0.02-0.14L352.81,157.1L352.81,157.1z"/>
		</g>
	</g>
</g>
<g>
	<path fill="#FFFFFF" d="M361,330.5c-6.34,0-11.5-5.16-11.5-11.5V169c0-6.34,5.16-11.5,11.5-11.5h27c6.34,0,11.5,5.16,11.5,11.5
		v119.73c-0.35,4.42-0.52,8.97-0.69,13.37c-0.31,8-0.62,16.27-2.01,24.28c-2.2,2.62-5.4,4.12-8.8,4.12H361z"/>
	<path d="M388,158c6.07,0,11,4.93,11,11v119.69c-0.35,4.46-0.52,9-0.69,13.39c-0.3,7.94-0.62,16.15-1.98,24.08
		c-2.1,2.44-5.13,3.84-8.33,3.84h-27c-6.07,0-11-4.93-11-11V169c0-6.07,4.93-11,11-11H388 M388,157h-27c-6.6,0-12,5.4-12,12v150
		c0,6.6,5.4,12,12,12h27c3.72,0,7.07-1.72,9.27-4.4c2.19-12.48,1.74-25.24,2.73-37.86V169C400,162.4,394.6,157,388,157L388,157z"/>
</g>
<g>
	<g>
		<g>
			<path fill="#FFFFFF" d="M321,472.5c-6.34,0-11.5-5.16-11.5-11.5V343c0-6.34,5.16-11.5,11.5-11.5h11c6.34,0,11.5,5.16,11.5,11.5
				v118c0,6.34-5.16,11.5-11.5,11.5H321z"/>
		</g>
	</g>
	<g>
		<g>
			<path d="M332,332c6.07,0,11,4.93,11,11v118c0,6.07-4.93,11-11,11h-11c-6.07,0-11-4.93-11-11V343c0-6.07,4.93-11,11-11H332
				 M332,331h-11c-6.6,0-12,5.4-12,12v118c0,6.6,5.4,12,12,12h11c6.6,0,12-5.4,12-12V343C344,336.4,338.6,331,332,331L332,331z"/>
		</g>
	</g>
</g>
<g>
	<g>
		<g>
			<path fill="#FFFFFF" d="M369,472.5c-6.34,0-11.5-5.16-11.5-11.5V343c0-6.34,5.16-11.5,11.5-11.5h11c6.34,0,11.5,5.16,11.5,11.5
				v118c0,6.34-5.16,11.5-11.5,11.5H369z"/>
		</g>
	</g>
	<g>
		<g>
			<path d="M380,332c6.07,0,11,4.93,11,11v118c0,6.07-4.93,11-11,11h-11c-6.07,0-11-4.93-11-11V343c0-6.07,4.93-11,11-11H380
				 M380,331h-11c-6.6,0-12,5.4-12,12v118c0,6.6,5.4,12,12,12h11c6.6,0,12-5.4,12-12V343C392,336.4,386.6,331,380,331L380,331z"/>
		</g>
	</g>
</g>
<g>
	<path fill="#FFFFFF" d="M766.48,231.68l77.69-68.8l6.85,7.38c-0.89,1.39-1,3.26-0.26,4.79c0.75,1.55,2.23,2.43,4.06,2.43
		c0.88,0,1.67-0.2,2.35-0.59l4.32,4.66l-77.69,68.8L766.48,231.68z"/>
	<path d="M844.14,163.57l6.26,6.75c-0.79,1.49-0.85,3.37-0.09,4.94c0.84,1.72,2.48,2.71,4.51,2.71c0.82,0,1.57-0.16,2.24-0.47
		l3.71,4l-76.94,68.14l-16.63-17.94L844.14,163.57 M844.21,162.18l-78.44,69.47l17.99,19.41l78.44-69.47l-4.95-5.34
		c-0.63,0.45-1.44,0.73-2.43,0.73c-3.97,0-5.01-4.41-3.16-6.76L844.21,162.18L844.21,162.18z"/>
</g>
<g>
	<rect x="678.94" y="415.42" fill="#FFFFFF" width="34.22" height="103.08"/>
	<path d="M712.66,415.92V518h-33.22V415.92H712.66 M713.66,414.92h-35.22V519h35.22V414.92L713.66,414.92z"/>
</g>
<g>
	<path fill="#FFFFFF" d="M696.05,421.79c-62.61,0-113.55-49.78-113.55-110.96s50.94-110.96,113.55-110.96S809.6,249.65,809.6,310.83
		S758.66,421.79,696.05,421.79z"/>
	<path d="M696.05,200.38c30.2,0,58.59,11.49,79.95,32.36c21.35,20.86,33.1,48.6,33.1,78.1s-11.76,57.24-33.1,78.1
		c-21.35,20.87-49.74,32.36-79.95,32.36s-58.59-11.49-79.95-32.36c-21.35-20.86-33.1-48.6-33.1-78.1s11.76-57.24,33.1-78.1
		C637.46,211.87,665.85,200.38,696.05,200.38 M696.05,199.38c-62.99,0-114.05,49.9-114.05,111.46s51.06,111.46,114.05,111.46
		s114.05-49.9,114.05-111.46S759.04,199.38,696.05,199.38L696.05,199.38z"/>
</g>
<g>
	<path fill="#FFFFFF" d="M696.05,404.58c-52.9,0-95.94-42.06-95.94-93.75s43.04-93.75,95.94-93.75s95.94,42.06,95.94,93.75
		S748.95,404.58,696.05,404.58z"/>
	<path d="M696.05,217.59c52.62,0,95.44,41.83,95.44,93.25s-42.81,93.25-95.44,93.25s-95.44-41.83-95.44-93.25
		S643.42,217.59,696.05,217.59 M696.05,216.59c-53.26,0-96.44,42.2-96.44,94.25s43.18,94.25,96.44,94.25
		c53.26,0,96.44-42.2,96.44-94.25S749.31,216.59,696.05,216.59L696.05,216.59z"/>
</g>
<g>
	<rect x="643.72" y="458.03" fill="#FFFFFF" width="105.5" height="29.32"/>
	<path d="M748.72,458.53v28.32h-104.5v-28.32H748.72 M749.72,457.53h-106.5v30.32h106.5V457.53L749.72,457.53z"/>
</g>
<g>
	<path fill="#FFFFFF" d="M859.01,171.01c-0.68-1.72-2.22-2.73-4.19-2.73c-1.97,0-3.51,1.01-4.19,2.73h-49.26V155.5h70.91v15.51
		H859.01z"/>
	<path d="M871.78,156v14.51h-12.44c-0.82-1.7-2.49-2.73-4.52-2.73c-2.03,0-3.7,1.03-4.52,2.73h-48.43V156H871.78 M872.78,155h-71.91
		v16.51h50.11c0.47-1.5,1.75-2.73,3.84-2.73c2.09,0,3.37,1.23,3.84,2.73h14.12V155L872.78,155z"/>
</g>
<g>
	<path fill="#FFFFFF" d="M856.55,235.94v-47.77c1.72-0.64,2.82-2.29,2.82-4.3c0-2-1.09-3.65-2.82-4.29v-12.92h15.9v69.28H856.55z"/>
	<path d="M871.95,167.16v68.28h-14.9V188.5c1.71-0.8,2.82-2.57,2.82-4.63c0-2.09-1.08-3.83-2.82-4.63v-12.09H871.95 M872.95,166.16
		h-16.9v13.78c3.76,1.04,3.75,6.82,0,7.87v48.63h16.9V166.16L872.95,166.16z"/>
</g>
<g>
	<g>
		<g>
			<path fill="#FFFFFF" d="M698.67,135.67c-26.14,0-47.41-21.27-47.41-47.41s21.27-47.41,47.41-47.41s47.41,21.27,47.41,47.41
				S724.81,135.67,698.67,135.67z"/>
		</g>
	</g>
	<g>
		<g>
			<path d="M698.67,41.34c25.87,0,46.91,21.04,46.91,46.91s-21.04,46.91-46.91,46.91c-25.87,0-46.91-21.04-46.91-46.91
				S672.8,41.34,698.67,41.34 M698.67,40.34c-26.46,0-47.91,21.45-47.91,47.91s21.45,47.91,47.91,47.91
				c26.46,0,47.91-21.45,47.91-47.91S725.13,40.34,698.67,40.34L698.67,40.34z"/>
		</g>
	</g>
</g>
<g>
	<path fill="#FFFFFF" d="M667.11,288.12c-6.34,0-11.5-5.16-11.5-11.5V149.04c0-6.34,5.16-11.5,11.5-11.5h64.86
		c6.34,0,11.5,5.16,11.5,11.5v127.58c0,6.34-5.16,11.5-11.5,11.5H667.11z"/>
	<path d="M731.97,138.04c6.07,0,11,4.93,11,11v127.58c0,6.07-4.93,11-11,11h-64.85c-6.07,0-11-4.93-11-11V149.04
		c0-6.07,4.93-11,11-11H731.97 M731.97,137.04h-64.85c-6.6,0-12,5.4-12,12v127.58c0,6.6,5.4,12,12,12h64.85c6.6,0,12-5.4,12-12
		V149.04C743.97,142.44,738.57,137.04,731.97,137.04L731.97,137.04z"/>
</g>
<g>
	<g>
		<g>
			<path fill="#FFFFFF" d="M823.61,372.71c-4.39,0-8.47-2.54-10.38-6.46l-43.62-89.65c-1.34-2.75-1.52-5.87-0.51-8.78
				s3.07-5.25,5.83-6.59l15.25-7.42c1.57-0.76,3.25-1.15,5-1.15c4.39,0,8.47,2.54,10.38,6.46l43.62,89.65
				c2.77,5.7,0.39,12.6-5.31,15.37l-15.25,7.42C827.03,372.32,825.35,372.71,823.61,372.71z"/>
		</g>
	</g>
	<g>
		<g>
			<path d="M795.17,252.15v1c4.2,0,8.1,2.43,9.93,6.18l43.62,89.65c2.65,5.45,0.38,12.05-5.08,14.7l-15.25,7.42
				c-1.5,0.73-3.11,1.1-4.78,1.1c-4.2,0-8.1-2.43-9.93-6.18l-43.62-89.65c-2.65-5.45-0.38-12.05,5.08-14.7l15.25-7.42
				c1.5-0.73,3.11-1.1,4.78-1.1V252.15 M795.17,252.15c-1.76,0-3.54,0.39-5.21,1.2l-15.25,7.42c-5.93,2.89-8.43,10.11-5.54,16.04
				l43.62,89.65c2.07,4.26,6.37,6.74,10.83,6.74c1.76,0,3.54-0.39,5.21-1.2l15.25-7.42c5.93-2.89,8.43-10.11,5.54-16.04
				l-43.62-89.65C803.92,254.64,799.62,252.15,795.17,252.15L795.17,252.15z"/>
		</g>
	</g>
</g>
<g>
	<path fill="#FFFFFF" d="M667.11,288.12c-6.34,0-11.5-5.16-11.5-11.5v-31.75c0-6.34,5.16-11.5,11.5-11.5h127.58
		c6.34,0,11.5,5.16,11.5,11.5v31.75c0,6.34-5.16,11.5-11.5,11.5H667.11z"/>
	<path d="M794.69,233.86c6.07,0,11,4.93,11,11v31.75c0,6.07-4.93,11-11,11H667.11c-6.07,0-11-4.93-11-11v-31.75
		c0-6.07,4.93-11,11-11H794.69 M794.69,232.86H667.11c-6.6,0-12,5.4-12,12v31.75c0,6.6,5.4,12,12,12h127.58c6.6,0,12-5.4,12-12
		v-31.75C806.69,238.26,801.29,232.86,794.69,232.86L794.69,232.86z"/>
</g>
</svg>
