<svg id="everyone-compound" xmlns="http://www.w3.org/2000/svg" viewBox="0 0 756.95 478.66">
  <title>everyone-compound</title>
  <g>
    <polygon points="71.81 116.75 0 290.66 143.61 290.66 71.81 116.75"/>
    <circle cx="72" cy="61.66" r="55"/>
    <rect x="26" y="290.66" width="35" height="142" rx="12" ry="12"/>
    <rect x="81" y="290.66" width="35" height="142" rx="12" ry="12"/>
  </g>
  <g>
    <circle cx="383" cy="61.66" r="55"/>
    <rect x="332" y="116.66" width="102" height="174" rx="12" ry="12"/>
    <rect x="340" y="290.66" width="35" height="142" rx="12" ry="12"/>
    <rect x="390" y="290.66" width="35" height="142" rx="12" ry="12"/>
  </g>
  <g>
    <circle cx="237" cy="61.66" r="55"/>
    <path d="M400.56,277.8a2.8,2.8,0,0,1-.25-.72A15,15,0,0,1,400,274c0-.69.09-1.38.1-2.08,0,0,0-.09,0-.14l-.14-.34V169a12,12,0,0,0-12-12H361a11.91,11.91,0,0,0-7.22,2.45l-1-2.35L281,331H393a4.64,4.64,0,0,1,2-1.82,7.45,7.45,0,0,0,3.32-3.21,5.2,5.2,0,0,1,0-1.35c.3-3.13.65-6.24.75-9.37,0-1.41.5-3.3.74-5.06,0-1.45-.06-2.87-.12-4.32a4.39,4.39,0,0,1,.55-2.34l0-.62a16.22,16.22,0,0,1-.05-4.2,10.92,10.92,0,0,1-.18-2,20.23,20.23,0,0,1,.34-2.74l0-.17q0-1.24,0-2.48v-6.62a5.35,5.35,0,0,1,.19-1.44q.07-1.85.17-3.69A5.74,5.74,0,0,1,400.56,277.8Z" transform="translate(-116 -40.34)"/>
    <rect x="193" y="290.66" width="35" height="142" rx="12" ry="12"/>
    <rect x="241" y="290.66" width="35" height="142" rx="12" ry="12"/>
  </g>
  <g>
    <circle cx="582.67" cy="47.91" r="47.91"/>
    <path d="M872.78,166.16V155H800.87v16.51h32.79l-62.58,55.42A114.43,114.43,0,0,0,744,209.67V149a12,12,0,0,0-12-12H667.11a12,12,0,0,0-12,12v57.74C612.35,222.86,582,263.38,582,310.84c0,55.7,41.81,101.86,96.44,110.13v36.56H643.22v30.32h35.22V519h35.22V487.86h36.06V457.53H713.66V421c41.93-6.35,76.31-35,90-73.2l9.1,18.7a12,12,0,0,0,16,5.54l15.25-7.42a12,12,0,0,0,5.54-16l-42.92-88.22V244.86a12,12,0,0,0-4.86-9.61l54.23-47.44v48.63H873V166.16ZM744,229q3.21,1.8,6.27,3.83H744ZM696,405.08c-53.26,0-96.44-42.2-96.44-94.25,0-37.75,22.71-70.31,55.5-85.35v51.13a12,12,0,0,0,12,12H774.9l16.77,34.48C785.53,369.35,745.06,405.08,696,405.08Z" transform="translate(-116 -40.34)"/>
  </g>
</svg>
