<svg id="man" xmlns="http://www.w3.org/2000/svg" viewBox="0 0 110 426">
  <title>man</title>
  <g>
    <g>
      <path d="M280,376.5A54.5,54.5,0,1,1,334.5,322,54.56,54.56,0,0,1,280,376.5Z" transform="translate(-225 -267)"/>
      <path d="M280,268a54,54,0,1,1-54,54,54.06,54.06,0,0,1,54-54m0-1a55,55,0,1,0,55,55,55,55,0,0,0-55-55Z" transform="translate(-225 -267)" fill="#fff"/>
    </g>
    <g>
      <path d="M299,692.5A11.51,11.51,0,0,1,287.5,681V563A11.51,11.51,0,0,1,299,551.5v-1H260v1A11.51,11.51,0,0,1,271.5,563V681A11.51,11.51,0,0,1,260,692.5H249A11.51,11.51,0,0,1,237.5,681V563A11.51,11.51,0,0,1,249,551.5v-1h-8A11.51,11.51,0,0,1,229.5,539V389A11.51,11.51,0,0,1,241,377.5h78A11.51,11.51,0,0,1,330.5,389V539A11.51,11.51,0,0,1,319,550.5h-9v1A11.51,11.51,0,0,1,321.5,563V681A11.51,11.51,0,0,1,310,692.5Z" transform="translate(-225 -267)"/>
      <path d="M319,378a11,11,0,0,1,11,11V539a11,11,0,0,1-11,11h-9v2a11,11,0,0,1,11,11V681a11,11,0,0,1-11,11H299a11,11,0,0,1-11-11V563a11,11,0,0,1,11-11v-2H260v2a11,11,0,0,1,11,11V681a11,11,0,0,1-11,11H249a11,11,0,0,1-11-11V563a11,11,0,0,1,11-11v-2h-8a11,11,0,0,1-11-11V389a11,11,0,0,1,11-11h78m0-1H241a12,12,0,0,0-12,12V539a12,12,0,0,0,12,12h8a12,12,0,0,0-12,12V681a12,12,0,0,0,12,12h11a12,12,0,0,0,12-12V563a12,12,0,0,0-12-12h39a12,12,0,0,0-12,12V681a12,12,0,0,0,12,12h11a12,12,0,0,0,12-12V563a12,12,0,0,0-12-12h9a12,12,0,0,0,12-12V389a12,12,0,0,0-12-12Z" transform="translate(-225 -267)" fill="#fff"/>
    </g>
  </g>
</svg>
