<svg id="manWomanSymbol" xmlns="http://www.w3.org/2000/svg" viewBox="0 0 346.95 444.15">
  <title>manWomanSymbol</title>
  <g>
    <path d="M220.5,733.5v-38h-42v-36h42V614l-.42-.07A135.53,135.53,0,0,1,105.5,480c0-74.71,60.79-135.5,135.5-135.5A135.39,135.39,0,0,1,330.17,378l.33.29,87.14-79,8.28,9.14a6.15,6.15,0,0,0-.32,5.87,5.05,5.05,0,0,0,4.72,2.84,5.36,5.36,0,0,0,2.82-.74l5.28,5.82-87.16,79,.26.36a135.53,135.53,0,0,1-89.6,212.29l-.42.07V659.5h43v36h-43v38Zm20.5-369A115.5,115.5,0,1,0,356.5,480,115.63,115.63,0,0,0,241,364.5Z" transform="translate(-105 -289.85)"/>
    <path d="M417.61,300l7.7,8.5a6.6,6.6,0,0,0-.15,6,5.54,5.54,0,0,0,5.17,3.12,6,6,0,0,0,2.71-.61l4.68,5.16-86.46,78.35-.66.6.51.72A135,135,0,0,1,261.85,613.4l-.85.13V660h43v35H261v38H221V695H179V660h42V613.53l-.85-.13a135,135,0,1,1,109.69-235l.67.59.66-.6L417.61,300M241,596a116,116,0,1,0-82-34,115.24,115.24,0,0,0,82,34M417.68,298.61l-87.18,79A136,136,0,1,0,220,614.39V659H178v37h42v38h42V696h43V659H262V614.39a136,136,0,0,0,89.93-213.08l87.2-79-5.9-6.51a4.78,4.78,0,0,1-2.9.89c-4.73,0-6-5.38-3.77-8.25l-8.89-9.81ZM241,595A115,115,0,1,1,356,480,115,115,0,0,1,241,595Z" transform="translate(-105 -289.85)" fill="#fff"/>
  </g>
  <g>
    <path d="M432.3,375.3V316.83a5,5,0,0,0,2.74-2.49,6.15,6.15,0,0,0,.18-4.91l-.1-.25a5.06,5.06,0,0,0-1.54-2l-.09-.06a4.71,4.71,0,0,0-.65-.4l-.12-.05a5.49,5.49,0,0,0-.73-.28,5.75,5.75,0,0,0-1.67-.24,5,5,0,0,0-4.93,3.33H366.5V290.35h84.75v.2h.2V375.3Z" transform="translate(-105 -289.85)"/>
    <path d="M450.75,290.85v.2h.2V374.8H432.8V317.16a5.46,5.46,0,0,0,2.69-2.61,6.66,6.66,0,0,0,.2-5.32l0-.06c0-.07-.05-.15-.09-.22a5.54,5.54,0,0,0-1.7-2.15l-.09-.06a5.27,5.27,0,0,0-.73-.45l-.17-.08a5.52,5.52,0,0,0-.76-.29,6.24,6.24,0,0,0-1.81-.26,5.51,5.51,0,0,0-5.27,3.33H367V290.85h83.75m1-1H366V310h59.76a4.56,4.56,0,0,1,4.58-3.33,5.28,5.28,0,0,1,1.53.22,4.54,4.54,0,0,1,.62.24l.14.06a4.32,4.32,0,0,1,.59.37l.07,0a4.58,4.58,0,0,1,1.39,1.77c0,.08.06.16.09.23,1,2.56,0,6-3,6.86V375.8H452V290h-.2v-.2Z" transform="translate(-105 -289.85)" fill="#fff"/>
  </g>
</svg>
