<svg id="mixed" xmlns="http://www.w3.org/2000/svg" viewBox="0 0 127 426">
  <title>mixed</title>
  <g>
    <g>
      <path d="M280,415.5A54.5,54.5,0,1,1,334.5,361,54.56,54.56,0,0,1,280,415.5Z" transform="translate(-208 -306)"/>
      <path d="M280,307a54,54,0,1,1-54,54,54.06,54.06,0,0,1,54-54m0-1a55,55,0,1,0,55,55,55,55,0,0,0-55-55Z" transform="translate(-208 -306)" fill="#fff"/>
    </g>
    <g>
      <path d="M296,731.5A11.51,11.51,0,0,1,284.5,720V602A11.51,11.51,0,0,1,296,590.5v-1H259v1A11.51,11.51,0,0,1,270.5,602V720A11.51,11.51,0,0,1,259,731.5H248A11.51,11.51,0,0,1,236.5,720V602A11.51,11.51,0,0,1,248,590.5v-1H208.75l71.06-172.09.76,1.83.52-.39A11.36,11.36,0,0,1,288,416.5h27A11.51,11.51,0,0,1,326.5,428V530.49l.13.31s0,0,0,.06c0,.41,0,.81-.05,1.21s0,.57,0,.86a15.67,15.67,0,0,0,.29,3.23,3.08,3.08,0,0,0,.24.74,6.2,6.2,0,0,0,.19,1.77q-.1,1.78-.17,3.56a5.91,5.91,0,0,0-.2,1.52v9.1l0,.06-.08.5a16.67,16.67,0,0,0-.27,2.33,11.21,11.21,0,0,0,.17,2,16.74,16.74,0,0,0,.06,4.26l0,.21v.2a4.9,4.9,0,0,0-.56,2.5l0,.67c.05,1.24.1,2.41.09,3.63-.08.58-.2,1.24-.31,1.88a24.09,24.09,0,0,0-.43,3.16c-.08,2.53-.34,5.09-.58,7.56l-.17,1.78a5.82,5.82,0,0,0,0,1.31,7,7,0,0,1-3,2.85,5.23,5.23,0,0,0-2,1.76H307v1A11.51,11.51,0,0,1,318.5,602V720A11.51,11.51,0,0,1,307,731.5Z" transform="translate(-208 -306)"/>
      <path d="M315,417a11,11,0,0,1,11,11V530.59l.08.18,0,.12c0,.39,0,.77-.05,1.16s0,.58,0,.87a16,16,0,0,0,.29,3.33,3.36,3.36,0,0,0,.23.75,6.7,6.7,0,0,0,.19,1.71q-.09,1.72-.16,3.44a6.4,6.4,0,0,0-.2,1.59v7.16q0,.93,0,1.86l0,.1-.07.45a16.93,16.93,0,0,0-.28,2.42,11.36,11.36,0,0,0,.17,2,17.26,17.26,0,0,0,.06,4.21l0,.22v.1a5.39,5.39,0,0,0-.57,2.66l0,.66c.05,1.22.1,2.37.09,3.55-.09.61-.2,1.25-.31,1.87a24.41,24.41,0,0,0-.43,3.22c-.09,2.51-.34,5.07-.58,7.53q-.09.89-.17,1.78a6.3,6.3,0,0,0,0,1.25,6.5,6.5,0,0,1-2.74,2.51,5.81,5.81,0,0,0-2.08,1.71H307v2a11,11,0,0,1,11,11V720a11,11,0,0,1-11,11H296a11,11,0,0,1-11-11V602a11,11,0,0,1,11-11v-2H259v2a11,11,0,0,1,11,11V720a11,11,0,0,1-11,11H248a11,11,0,0,1-11-11V602a11,11,0,0,1,11-11v-2H209.49l70.31-170.28,0,.11.5,1.2,1-.78A10.87,10.87,0,0,1,288,417h27m0-1H288a11.91,11.91,0,0,0-7.22,2.45l-1-2.35L208,590h40a12,12,0,0,0-12,12V720a12,12,0,0,0,12,12h11a12,12,0,0,0,12-12V602a12,12,0,0,0-12-12h37a12,12,0,0,0-12,12V720a12,12,0,0,0,12,12h11a12,12,0,0,0,12-12V602a12,12,0,0,0-12-12h13a4.64,4.64,0,0,1,2-1.82,7.45,7.45,0,0,0,3.32-3.21,5.2,5.2,0,0,1,0-1.35c.3-3.13.65-6.24.75-9.37,0-1.41.5-3.3.74-5.06,0-1.45-.06-2.87-.12-4.32a4.39,4.39,0,0,1,.55-2.34l0-.62a16.22,16.22,0,0,1-.05-4.2,10.92,10.92,0,0,1-.18-2,20.23,20.23,0,0,1,.34-2.74l0-.17q0-1.24,0-2.48v-6.62a5.35,5.35,0,0,1,.19-1.44q.07-1.85.17-3.69a5.74,5.74,0,0,1-.19-1.82,2.8,2.8,0,0,1-.25-.72A15,15,0,0,1,327,533c0-.69.09-1.38.1-2.08,0,0,0-.09,0-.14l-.14-.34V428a12,12,0,0,0-12-12Z" transform="translate(-208 -306)" fill="#fff"/>
    </g>
  </g>
</svg>
