<svg id="regular" xmlns="http://www.w3.org/2000/svg" viewBox="0 0 303 426">
  <title>regular</title>
  <g>
    <g>
      <path d="M188,367.5A54.5,54.5,0,1,1,242.5,313,54.56,54.56,0,0,1,188,367.5Z" transform="translate(-116 -258)"/>
      <path d="M188,259a54,54,0,1,1-54,54,54.06,54.06,0,0,1,54-54m0-1a55,55,0,1,0,55,55,55,55,0,0,0-55-55Z" transform="translate(-116 -258)" fill="#fff"/>
    </g>
    <g>
      <path d="M209,683.5A11.51,11.51,0,0,1,197.5,672V554A11.51,11.51,0,0,1,209,542.5v-1H165v1A11.51,11.51,0,0,1,176.5,554V672A11.51,11.51,0,0,1,165,683.5H154A11.51,11.51,0,0,1,142.5,672V554A11.51,11.51,0,0,1,154,542.5v-1H116.75l71.06-172.09L258.87,541.5H220v1A11.51,11.51,0,0,1,231.5,554V672A11.51,11.51,0,0,1,220,683.5Z" transform="translate(-116 -258)"/>
      <path d="M187.81,370.72,258.12,541H220v2a11,11,0,0,1,11,11V672a11,11,0,0,1-11,11H209a11,11,0,0,1-11-11V554a11,11,0,0,1,11-11v-2H165v2a11,11,0,0,1,11,11V672a11,11,0,0,1-11,11H154a11,11,0,0,1-11-11V554a11,11,0,0,1,11-11v-2H117.49l70.31-170.28m0-2.62L116,542h38a12,12,0,0,0-12,12V672a12,12,0,0,0,12,12h11a12,12,0,0,0,12-12V554a12,12,0,0,0-12-12h44a12,12,0,0,0-12,12V672a12,12,0,0,0,12,12h11a12,12,0,0,0,12-12V554a12,12,0,0,0-12-12h39.61L187.81,368.1Z" transform="translate(-116 -258)" fill="#fff"/>
    </g>
  </g>
  <g>
    <g>
      <path d="M364,367.5A54.5,54.5,0,1,1,418.5,313,54.56,54.56,0,0,1,364,367.5Z" transform="translate(-116 -258)"/>
      <path d="M364,259a54,54,0,1,1-54,54,54.06,54.06,0,0,1,54-54m0-1a55,55,0,1,0,55,55,55,55,0,0,0-55-55Z" transform="translate(-116 -258)" fill="#fff"/>
    </g>
    <g>
      <path d="M383,683.5A11.51,11.51,0,0,1,371.5,672V554A11.51,11.51,0,0,1,383,542.5v-1H344v1A11.51,11.51,0,0,1,355.5,554V672A11.51,11.51,0,0,1,344,683.5H333A11.51,11.51,0,0,1,321.5,672V554A11.51,11.51,0,0,1,333,542.5v-1h-8A11.51,11.51,0,0,1,313.5,530V380A11.51,11.51,0,0,1,325,368.5h78A11.51,11.51,0,0,1,414.5,380V530A11.51,11.51,0,0,1,403,541.5h-9v1A11.51,11.51,0,0,1,405.5,554V672A11.51,11.51,0,0,1,394,683.5Z" transform="translate(-116 -258)"/>
      <path d="M403,369a11,11,0,0,1,11,11V530a11,11,0,0,1-11,11h-9v2a11,11,0,0,1,11,11V672a11,11,0,0,1-11,11H383a11,11,0,0,1-11-11V554a11,11,0,0,1,11-11v-2H344v2a11,11,0,0,1,11,11V672a11,11,0,0,1-11,11H333a11,11,0,0,1-11-11V554a11,11,0,0,1,11-11v-2h-8a11,11,0,0,1-11-11V380a11,11,0,0,1,11-11h78m0-1H325a12,12,0,0,0-12,12V530a12,12,0,0,0,12,12h8a12,12,0,0,0-12,12V672a12,12,0,0,0,12,12h11a12,12,0,0,0,12-12V554a12,12,0,0,0-12-12h39a12,12,0,0,0-12,12V672a12,12,0,0,0,12,12h11a12,12,0,0,0,12-12V554a12,12,0,0,0-12-12h9a12,12,0,0,0,12-12V380a12,12,0,0,0-12-12Z" transform="translate(-116 -258)" fill="#fff"/>
    </g>
  </g>
</svg>
