<svg id="wheelchair" xmlns="http://www.w3.org/2000/svg" viewBox="0 0 328.25 458">
  <title>wheelchair</title>
  <g>
    <path d="M277.5,769.5c-83.81,0-152-68.19-152-152s68.19-152,152-152,152,68.19,152,152S361.31,769.5,277.5,769.5Zm2.5-286c-74.16,0-134.5,60.34-134.5,134.5S205.84,752.5,280,752.5,414.5,692.16,414.5,618,354.16,483.5,280,483.5Z" transform="translate(-125 -312)"/>
    <path d="M277.5,466a151.5,151.5,0,1,1-107.13,44.37A150.51,150.51,0,0,1,277.5,466M280,753a135,135,0,1,0-95.46-39.54A134.12,134.12,0,0,0,280,753m-2.5-288A152.5,152.5,0,1,0,430,617.5,152.5,152.5,0,0,0,277.5,465ZM280,752A134,134,0,1,1,414,618,134,134,0,0,1,280,752Z" transform="translate(-125 -312)" fill="#fff"/>
  </g>
  <g>
    <g>
      <path d="M420.6,694.21a11.6,11.6,0,0,1-10.38-6.46l-44.4-91.25H240A11.51,11.51,0,0,1,228.5,585V435A11.51,11.51,0,0,1,240,423.5h78A11.51,11.51,0,0,1,329.5,435v98.5H390A11.51,11.51,0,0,1,401.5,545v19.65l50.1,103A11.51,11.51,0,0,1,446.29,683l-20.7,10.07a11.32,11.32,0,0,1-5,1.15Z" transform="translate(-125 -312)"/>
      <path d="M318,424a11,11,0,0,1,11,11v99h61a11,11,0,0,1,11,11v19.76l.1.21,50,102.87a11,11,0,0,1-5.08,14.7l-20.7,10.07a10.83,10.83,0,0,1-4.78,1.1,11.09,11.09,0,0,1-9.93-6.18l-44.26-91-.27-.56H240a11,11,0,0,1-11-11V435a11,11,0,0,1,11-11h78m0-1H240a12,12,0,0,0-12,12V585a12,12,0,0,0,12,12H365.51l44.26,91a12,12,0,0,0,10.83,6.74,11.89,11.89,0,0,0,5.21-1.2l20.7-10.07a12,12,0,0,0,5.54-16L402,564.53V545a12,12,0,0,0-12-12H330V435a12,12,0,0,0-12-12Z" transform="translate(-125 -312)" fill="#fff"/>
    </g>
    <g>
      <path d="M278,421.5A54.5,54.5,0,1,1,332.5,367,54.56,54.56,0,0,1,278,421.5Z" transform="translate(-125 -312)"/>
      <path d="M278,313a54,54,0,1,1-54,54,54.06,54.06,0,0,1,54-54m0-1a55,55,0,1,0,55,55,55,55,0,0,0-55-55Z" transform="translate(-125 -312)" fill="#fff"/>
    </g>
  </g>
</svg>
