<svg id="woman" xmlns="http://www.w3.org/2000/svg" viewBox="0 0 143.61 426">
  <title>woman</title>
  <g>
    <g>
      <path d="M280,376.5A54.5,54.5,0,1,1,334.5,322,54.56,54.56,0,0,1,280,376.5Z" transform="translate(-208 -267)"/>
      <path d="M280,268a54,54,0,1,1-54,54,54.06,54.06,0,0,1,54-54m0-1a55,55,0,1,0,55,55,55,55,0,0,0-55-55Z" transform="translate(-208 -267)" fill="#fff"/>
    </g>
    <g>
      <path d="M301,692.5A11.51,11.51,0,0,1,289.5,681V563A11.51,11.51,0,0,1,301,551.5v-1H257v1A11.51,11.51,0,0,1,268.5,563V681A11.51,11.51,0,0,1,257,692.5H246A11.51,11.51,0,0,1,234.5,681V563A11.51,11.51,0,0,1,246,551.5v-1H208.75l71.06-172.09L350.87,550.5H312v1A11.51,11.51,0,0,1,323.5,563V681A11.51,11.51,0,0,1,312,692.5Z" transform="translate(-208 -267)"/>
      <path d="M279.81,379.72,350.12,550H312v2a11,11,0,0,1,11,11V681a11,11,0,0,1-11,11H301a11,11,0,0,1-11-11V563a11,11,0,0,1,11-11v-2H257v2a11,11,0,0,1,11,11V681a11,11,0,0,1-11,11H246a11,11,0,0,1-11-11V563a11,11,0,0,1,11-11v-2H209.49l70.31-170.28m0-2.62L208,551h38a12,12,0,0,0-12,12V681a12,12,0,0,0,12,12h11a12,12,0,0,0,12-12V563a12,12,0,0,0-12-12h44a12,12,0,0,0-12,12V681a12,12,0,0,0,12,12h11a12,12,0,0,0,12-12V563a12,12,0,0,0-12-12h39.61L279.81,377.1Z" transform="translate(-208 -267)" fill="#fff"/>
    </g>
  </g>
</svg>
